<svg xmlns="http://www.w3.org/2000/svg" width="185" height="24" viewBox="0 0 185 24">
    <g fill="#2C2C2C" fill-rule="evenodd">
        <g fill-rule="nonzero" transform="translate(40 4)">
            <path d="M82.146808.692959276L79.6582082.692959276C79.514962.692959276 79.3993939.809755656 79.3993939.953918548L79.3993939 11.7065158C79.3993939 13.0220634 79.0284104 13.4662806 77.9280851 13.4662806L71.4659806 13.4662806C70.3141838 13.4662806 69.925234 13.0391674 69.925234 11.7763982L69.925234.953918548C69.925234.809755656 69.8096658.692959276 69.665934.692959276L67.1783054.692959276C67.0350592.692959276 66.9190055.809755656 66.9190055.953918548L66.9190055 11.7763982C66.9190055 14.5980814 68.6190226 16.2816109 71.4659806 16.2816109L77.9280851 16.2816109C80.7318265 16.2816109 82.4056224 14.5716923 82.4056224 11.7065158L82.4056224.953918548C82.4056224.809755656 82.2900542.692959276 82.146808.692959276L82.146808.692959276zM35.3337947 8.39599819L27.4639925 8.39599819 27.4639925 3.51449593 35.2643567 3.51449593C36.4161535 3.51449593 36.8046178 3.94063168 36.8046178 5.20340091L36.8046178 6.63672217C36.8046178 7.95226968 36.4336343 8.39599819 35.3337947 8.39599819L35.3337947 8.39599819zM36.5618276 11.0881792C38.6342849 10.6522697 39.8113319 9.05279457 39.8113319 6.63672217L39.8113319 5.20340091C39.8113319 2.38122896 38.1108292.696722172 35.2643567.696722172L24.7165784.69281267C24.647626.69281267 24.5815871.720667873 24.533029.769536652 24.4844709.81840543 24.457764.884378281 24.457764.953771945L24.457764 16.0029122C24.457764 16.1475638 24.5728465 16.2638715 24.7165784 16.2638715L27.2046925 16.2638715C27.3479388 16.2638715 27.4639925 16.1475638 27.4639925 16.0029122L27.4639925 11.2137719 33.1321729 11.2137719 36.9056185 16.1734642C36.9546622 16.237971 37.0308983 16.2756 37.1115046 16.2756L39.9837129 16.2756C39.9851697 16.2756 39.987112 16.2760887 39.9875976 16.2756 40.1308438 16.2756 40.2473831 16.1588036 40.2473831 16.0146407 40.2473831 15.9403602 40.2158204 15.8734099 40.1658055 15.8255186L36.5618276 11.0881792zM126.121215.692959276L122.9091.692959276C122.836749.692959276 122.768282.723257919 122.719239.776524887L116.594612 8.41715838 110.469987.776524887C110.421428.723257919 110.351991.692959276 110.280125.692959276L107.067525.692959276C106.964096.692959276 106.870379.754533937 106.82959.850316742 106.788801.946588237 106.808224 1.05703168 106.87912 1.13277828L115.091256 10.9006697 115.091256 16.0147873C115.091256 16.1584615 115.207309 16.2757466 115.35007 16.2757466L117.83867 16.2757466C117.98143 16.2757466 118.097969 16.1584615 118.097969 16.0147873L118.097969 10.9006697 126.310106 1.13277828C126.381001 1.05703168 126.400424.946588237 126.35915.850316742 126.318361.754533937 126.225129.692959276 126.121215.692959276L126.121215.692959276zM6.08563394 10.6912941L9.71049193 4.0920543 13.3392345 10.6912941 6.08563394 10.6912941zM11.1138194.827619909C11.0681748.744542986 10.9817415.692742081 10.8870533.692742081L8.53198818.692742081C8.43778558.692742081 8.35086668.744542986 8.30473655.827619909L.0323882151 15.8884887C-.0122851851 15.9691222-.0108284437 16.0678371.0357872782 16.1470045.0828885806 16.2266607.167379577 16.2755294.259154279 16.2755294L2.86477891 16.2755294C2.95946709 16.2755294 3.04638599 16.2232398 3.09203055 16.1406516L4.59441642 13.4059547 14.8319087 13.4059547 16.3357514 16.1411403C16.3813959 16.2232398 16.4678293 16.2755294 16.5625174 16.2755294L19.1691132 16.2755294C19.17057 16.2755294 19.1720267 16.2760181 19.1729979 16.2755294 19.3162441 16.2755294 19.4322979 16.158733 19.4322979 16.0145701 19.4322979 15.9534842 19.4114179 15.8967964 19.3754849 15.8523258L11.1138194.827619909zM99.6602721 7.46424435C98.9411274 7.3777466 93.892062 6.79180996 93.2860576 6.71948417 91.5661317 6.51228054 91.5661317 6.14527602 91.5661317 5.27296832 91.5661317 3.20679638 93.5740068 3.30502263 95.9577212 3.30502263 98.8993674 3.30502263 101.215586 3.51564706 102.396032 3.94666968 102.527139 3.99504978 102.673299 3.92858824 102.725256 3.79761991L103.522093 1.78178281C103.547829 1.71580996 103.546372 1.64250678 103.517237 1.578 103.489074 1.5139819 103.435174 1.46413575 103.369621 1.43970136 101.846355.884063348 100.114775.488714932 95.9577212.488714932 91.3184857.488714932 88.5603888 1.21637104 88.5603888 5.27296832 88.5603888 8.69818099 91.0533588 9.39407239 92.9296416 9.61886878 93.7939748 9.72295929 98.8396411 10.3084073 99.303856 10.3646063 101.023782 10.5708326 101.023782 10.9383258 101.023782 11.8111222 101.023782 13.8763168 98.4977924 13.7785792 96.1135925 13.7785792 93.1724318 13.7785792 90.9601273 13.5679547 89.7796813 13.1369322 89.648089 13.0880634 89.5019293 13.1550136 89.4504577 13.2859819L88.6531347 15.301819C88.6273989 15.3677919 88.6288556 15.4406063 88.6579905 15.5056018 88.6861541 15.5696199 88.7400536 15.619466 88.8056069 15.6439004 90.3288728 16.1995385 91.957024 16.5958642 96.1135925 16.5958642 100.753314 16.5958642 104.03001 15.8667421 104.03001 11.8111222 104.03001 8.3859095 101.536069 7.68952941 99.6602721 7.46424435M53.7572727 3.30512036C56.698919 3.30512036 58.7038806 3.5157448 59.8843266 3.94676742 60.015919 3.99514751 60.1615931 3.92819729 60.2130646 3.79771765L61.0108733 1.78188054C61.0361234 1.71590769 61.0341811 1.64260453 61.0060174 1.57809774 60.9773683 1.51407964 60.9239544 1.4637448 60.8579154 1.43979909 59.334164.884161086 57.9143268.488323982 53.7572727.488323982 49.1360037.488323982 46.382277 1.21207059 46.3604259 5.22615204 46.3604259 5.22810678 46.3594547 5.22957285 46.3594547 5.23103891L46.3594547 11.8107312C46.3594547 15.8668398 49.1180372 16.5954733 53.7572727 16.5954733 57.9143268 16.5954733 59.334164 16.1996362 60.8579154 15.6439982 60.9239544 15.6195638 60.9773683 15.5697176 61.0060174 15.5056996 61.0341811 15.4407041 61.0361234 15.3678896 61.0108733 15.3019168L60.2130646 13.2860796C60.1615931 13.1546226 60.015919 13.0881611 59.8843266 13.1370299 58.7038806 13.5680525 56.698919 13.7786769 53.7572727 13.7786769 51.3735583 13.7786769 49.3656832 13.8764145 49.3656832 11.8107312L49.3656832 5.27257737C49.3656832 3.20689411 51.3735583 3.30512036 53.7572727 3.30512036M140.288819 7.46424435C139.569674 7.3777466 134.521094 6.79180996 133.914604 6.71948417 132.195164 6.51228054 132.195164 6.14527602 132.195164 5.27296832 132.195164 3.20679638 134.202553 3.30502263 136.586268 3.30502263 139.5284 3.30502263 141.843647 3.51564706 143.024579 3.94666968 143.155685 3.99504978 143.30136 3.92858824 143.353317 3.79761991L144.150154 1.78178281C144.176375 1.71580996 144.174919 1.64250678 144.145784 1.578 144.11762 1.5139819 144.063721 1.46413575 143.998167 1.43970136 142.474902.884063348 140.743322.488714932 136.586268.488714932 131.946547.488714932 129.188935 1.21637104 129.188935 5.27296832 129.188935 8.69818099 131.682391 9.39407239 133.558674 9.61886878 134.422521 9.72295929 139.468188 10.3084073 139.932888 10.3646063 141.652328 10.5708326 141.652328 10.9383258 141.652328 11.8111222 141.652328 13.8763168 139.125853 13.7785792 136.742139 13.7785792 133.800978 13.7785792 131.588188 13.5679547 130.407742 13.1369322 130.276636 13.0880634 130.130476 13.1550136 130.07949 13.2859819L129.282167 15.301819C129.255945 15.3677919 129.257402 15.4406063 129.286537 15.5056018 129.314701 15.5696199 129.3686 15.619466 129.434153 15.6439004 130.957419 16.1995385 132.586056 16.5958642 136.742139 16.5958642 141.38186 16.5958642 144.658557 15.8667421 144.658557 11.8111222 144.658557 8.3859095 142.164616 7.68952941 140.288819 7.46424435"/>
        </g>
        <polygon points="13.877 0 0 24 1.953 24 10.586 9.065 4.404 24 6.196 24 11.843 10.356 8.773 24 10.438 24 13.075 12.28 13.075 24 14.679 24 14.679 12.278 17.312 24 18.977 24 15.908 10.358 21.558 24 23.348 24 17.166 9.066 25.798 24 27.751 24"/>
    </g>
</svg>
