<svg enable-background="new 0 0 240 70" viewBox="0 0 240 70" xmlns="http://www.w3.org/2000/svg"><g clip-rule="evenodd" fill="#231f20" fill-rule="evenodd"><path d="m144.3 19.9c-9.9 0-13.4 7.8-13.4 7.8s-3.6-7.8-13.7-7.8c-9.6 0-11.9 7.8-11.9 7.8v-6.2h-5.2v38.5h5.2v-19.3c0-6 2.7-15.8 11.9-15.8 10.1 0 10.1 9.9 10.1 15.8v19.3h5.3v-19.3c0-9.6 4.1-15.8 11.7-15.8 10.1 0 10.1 9.9 10.1 15.8v19.3h5.3v-19.3c0-5.9 0-20.8-15.4-20.8z"/><path d="m179.7 12.6c2.3 0 4.4-2.1 4.4-4.5 0-2.5-2-4.5-4.4-4.5-2.5 0-4.5 2.1-4.5 4.6-.1 2.3 2 4.4 4.5 4.4z"/><path d="m35.1 13.7 7.8-10h-5.5c-.8 0-1.5.4-1.9 1.1l-5.5 9.3h4.2c.4 0 .7-.2.9-.4z"/><path d="m44.2 27.7s-3.4-7.9-14.2-7.9c-26.1 0-26.1 41.7 0 41.7 9.9 0 14.2-7.8 14.2-7.8v6.3h5.2v-38.5h-5.2zm-14.2 29.2c-18.6 0-18.6-32.5 0-32.5 19.5.1 19.4 32.5 0 32.5z"/><path d="m182.3 21.5h-10.8v5.2h5.6v28.6h-8.2v4.7h21.6v-4.8h-8.2z"/><path d="m225.4 26.7v-5.2h-19.8v-14.7l-4 2.1c-.8.4-1.2 1.2-1.2 2v10.6h-5.6v5.2h5.6v18.2c0 12.8 7.1 16.7 14.6 16.7 3.7 0 7.2-1.1 9.9-4.1l-3.2-3.3s-2.5 2.4-6.7 2.4c-7.3 0-9.4-5.9-9.4-11.6v-18.3z"/><path d="m92.5 21.5h-5.8c-.4 0-.7.2-.9.5l-10.9 15-11-15.1c-.2-.3-.6-.5-.9-.5h-5.8l13.2 17.9c.6.8.6 1.9 0 2.7l-13.2 18h5.8c.4 0 .7-.2.9-.5l11-15.1 11 15.1c.2.3.6.5.9.5h5.8l-13.3-17.9c-.6-.8-.6-1.9 0-2.7z"/></g></svg>