<svg id="Layer_1" data-name="Layer 1" xmlns="http://www.w3.org/2000/svg" width="360" height="45.07679" viewBox="0 0 360 45.07679"><title>logo glavnaya</title><path d="M1183.74037,143.88492a9.31163,9.31163,0,1,1-5.94264,17.64964,10.59947,10.59947,0,0,1-2.43648-1.30738l2.49591-1.78279h0a2.75628,2.75628,0,0,0,1.01025-1.90164h0a2.95415,2.95415,0,0,0-.59427-2.07992h0v0a3.29682,3.29682,0,0,0-1.78279-1.248h0a2.38206,2.38206,0,0,0-2.07992.416H1174.351l-2.43648,1.78279a8.936,8.936,0,0,1,.05943-5.70493,9.2318,9.2318,0,0,1,11.76642-5.82378h0Z" transform="translate(-1090.50542 -141.8666)" fill="#ff6b4b" fill-rule="evenodd"/><path d="M1139.46771,156.66159l7.78486,4.39755a1.83094,1.83094,0,0,1,.53484,2.49591h0a1.79635,1.79635,0,0,1-2.37705.832l-8.02256-4.51641a12.94478,12.94478,0,0,0,2.07992-3.209h0Z" transform="translate(-1090.50542 -141.8666)" fill="#ff72ab" fill-rule="evenodd"/><path d="M1177.44117,155.05708h0a1.82214,1.82214,0,0,1-.2377,2.49591l-4.15985,3.03075a18.248,18.248,0,0,0-2.2582-3.03075l4.21927-3.03074a1.78616,1.78616,0,0,1,2.43648.53484h0Z" transform="translate(-1090.50542 -141.8666)" fill="#ff6b4b" fill-rule="evenodd"/><path d="M1118.96561,153.15543a10.3394,10.3394,0,0,1,9.15166-11.23158,10.24766,10.24766,0,0,1,2.13935,20.38325,10.80184,10.80184,0,0,1-5.70493-1.06968l2.07993-1.78279v-0.05942a3.61643,3.61643,0,0,0,1.248-2.793,4.58016,4.58016,0,0,0-1.1291-3.03075h0l-0.05943-.05943h0a4.58817,4.58817,0,0,0-2.73361-1.54508,3.57868,3.57868,0,0,0-2.97132.77254v0.05943h-0.05943l-1.72337,1.54508a8.41405,8.41405,0,0,1-.23771-1.18853h0Z" transform="translate(-1090.50542 -141.8666)" fill="#ff72ab" fill-rule="evenodd"/><path d="M1118.54963,156.36446l3.09017-2.73361a3.037,3.037,0,0,1,4.2787.65369h0a3.0776,3.0776,0,0,1,0,4.33812l-3.1496,2.73362a18.12381,18.12381,0,0,0-4.21927-4.99182h0Z" transform="translate(-1090.50542 -141.8666)" fill="#ffd447" fill-rule="evenodd"/><path d="M1196.04163,150.89723h0a1.12907,1.12907,0,0,1-.95082,1.30738l-4.041.35656a8.3353,8.3353,0,0,0-.35657-2.43648l4.15985-.35656a1.17617,1.17617,0,0,1,1.18853,1.1291h0Z" transform="translate(-1090.50542 -141.8666)" fill="#ff9c46" fill-rule="evenodd"/><path d="M1158.00875,152.79888a16.64863,16.64863,0,0,1,16.52053,15.0943l-1.48566-.11886h0a2.86064,2.86064,0,0,0-2.2582.77254,3.85286,3.85286,0,0,0-1.06968,2.19878h0a3.87371,3.87371,0,0,0,.59427,2.31763h0a3.04,3.04,0,0,0,2.07993,1.248h0l1.42623,0.11885a16.60559,16.60559,0,1,1-31.496-10.51847l2.43648,1.30738a2.867,2.867,0,0,0,2.31763.29714,3.14588,3.14588,0,0,0,1.60451-1.42624,3.05192,3.05192,0,0,0,.416-2.13935,2.53233,2.53233,0,0,0-1.30738-1.78279l-2.4959-1.42624a16.5469,16.5469,0,0,1,12.71725-5.94264h0Z" transform="translate(-1090.50542 -141.8666)" fill="#3298dc" fill-rule="evenodd"/><path d="M1147.84683,145.1923a4.95846,4.95846,0,0,1,6.834-.8914,4.82448,4.82448,0,0,1,.8914,6.77461,3.11479,3.11479,0,0,1-.59426.65369l-0.416-1.30738h0a1.78667,1.78667,0,0,0-1.06968-1.18853h0a2.10352,2.10352,0,0,0-1.48566-.05943h0a2.53179,2.53179,0,0,0-1.18853.8914h0a1.99835,1.99835,0,0,0-.17828,1.54508h0l0.416,1.30738a5.02135,5.02135,0,0,1-2.2582-.8914,4.91279,4.91279,0,0,1-.95082-6.834h0Z" transform="translate(-1090.50542 -141.8666)" fill="#58c7ff" fill-rule="evenodd"/><path d="M1091.09464,174.48951a16.76471,16.76471,0,1,1,20.5021,11.88528,16.712,16.712,0,0,1-20.5021-11.88528h0Z" transform="translate(-1090.50542 -141.8666)" fill="#ffd447" fill-rule="evenodd"/><path d="M1200.974,148.28247a3.987,3.987,0,0,1-6.12092,5.11067l-0.05943-.05943,0.35656-.05942h0.05943a1.98669,1.98669,0,0,0,1.42624-.832h0a2.01924,2.01924,0,0,0,.47541-1.54509v-0.05942h0v-0.05943a2.50774,2.50774,0,0,0-.71312-1.48566,1.94492,1.94492,0,0,0-1.60451-.59426h-0.29713a5.95307,5.95307,0,0,1,.832-0.95082,3.98631,3.98631,0,0,1,5.64551.53484h0Z" transform="translate(-1090.50542 -141.8666)" fill="#ff9c46" fill-rule="evenodd"/><path d="M1152.36324,150.18411h0a0.97724,0.97724,0,0,1,1.18853.53484l0.47541,1.66394c-0.59426.17828-1.248,0.35656-1.84222,0.53484l-0.53484-1.60452a0.96724,0.96724,0,0,1,.71312-1.1291h0Z" transform="translate(-1090.50542 -141.8666)" fill="#58c7ff" fill-rule="evenodd"/><path d="M1207.21379,167.89318a11.88205,11.88205,0,0,1-20.68038,11.707,11.88205,11.88205,0,1,1,20.68038-11.707h0Z" transform="translate(-1090.50542 -141.8666)" fill="#c796d7" fill-rule="evenodd"/><path d="M1183.91865,174.37065l-11.40987-1.1291a2.12955,2.12955,0,0,1-1.72336-2.43648h0a2.11946,2.11946,0,0,1,2.13934-1.96107l11.52872,1.18853a13.18335,13.18335,0,0,0-.53484,4.33813h0Z" transform="translate(-1090.50542 -141.8666)" fill="#c796d7" fill-rule="evenodd"/><path d="M1274.60331,143.52836a2.129,2.129,0,0,1,1.30739,1.90164v23.11686h-4.10043V150.36239l-17.5902,17.59021a2.12329,2.12329,0,0,1-2.2582.47541,2.07185,2.07185,0,0,1-1.248-1.90165V143.40951h4.10041v18.125c4.873-4.873,17.59022-17.53079,17.59022-17.53079a2.02624,2.02624,0,0,1,2.19876-.47541h0Zm-41.47962-.11886a11.31159,11.31159,0,0,0-11.35043,11.35044v2.43648a11.34937,11.34937,0,0,0,11.35043,11.35044h13.31152l-0.77255-4.10042h-12.539a7.24077,7.24077,0,0,1-7.25-7.25v-2.43648a7.20327,7.20327,0,0,1,7.25-7.25h12.539l0.77255-4.10042h-13.31152Zm70.89569,0h-25.19679v4.10042h10.5779v21.03694h4.10041V147.50993h10.51848v-4.10042Zm43.32183,0-12.123,25.13736h4.63525l9.56765-19.789,9.5082,19.789h4.63527l-12.123-25.13736h-4.10041Zm-15.56972.11886a2.07186,2.07186,0,0,1,1.248,1.90164v23.11686H1328.919V150.36239l-17.5902,17.59021a2.049,2.049,0,0,1-2.19878.47541,2.129,2.129,0,0,1-1.30737-1.90165V143.40951h4.10041v18.125c4.873-4.873,17.59022-17.53079,17.59022-17.53079a2.12328,2.12328,0,0,1,2.2582-.47541h0Zm57.94072,0a2.07186,2.07186,0,0,1,1.248,1.90164v23.11686h-4.10041V150.36239c-4.873,4.873-17.5902,17.59021-17.5902,17.59021a2.04908,2.04908,0,0,1-2.1988.47541,2.129,2.129,0,0,1-1.30739-1.90165V143.40951h4.10045v18.125c4.87295-4.873,17.5902-17.53079,17.5902-17.53079a2.12329,2.12329,0,0,1,2.2582-.47541h0Zm39.28085,14.5h7.60657c0.59426,0.59426,8.914,10.51847,8.914,10.51847h4.99182l-10.16191-12.59839,10.16191-12.539h-4.99182s-8.3197,9.92421-8.914,10.51847h-7.60657V143.40951h-4.10045v25.13736h4.10045V158.0284Zm-12.59842-14.61889V153.928h-16.99594V143.40951h-4.10041v25.13736h4.10041V158.0284h16.99594v10.51847h4.10045V143.40951h-4.10045Z" transform="translate(-1090.50542 -141.8666)" fill="#fefefe" fill-rule="evenodd"/><path d="M1232.64829,176.926a0.77218,0.77218,0,0,1,.4754.71311v8.498h-1.54508V179.4219c-1.78278,1.78279-6.418,6.47748-6.418,6.47748a0.73588,0.73588,0,0,1-.832.17828,0.77219,0.77219,0,0,1-.4754-0.71312v-8.498h1.48567v6.65575c1.84221-1.78279,6.47747-6.418,6.47747-6.418a0.73589,0.73589,0,0,1,.832-0.17828h0Z" transform="translate(-1090.50542 -141.8666)" fill="#fefefe" fill-rule="evenodd"/><polygon points="153.85 35 152.305 35 152.305 38.863 146.124 38.863 146.124 35 144.579 35 144.579 44.27 146.124 44.27 146.124 40.408 152.305 40.408 152.305 44.27 153.85 44.27 153.85 35" fill="#fefefe" fill-rule="evenodd"/><polygon points="165.022 35 155.811 35 155.811 36.545 159.674 36.545 159.674 44.27 161.159 44.27 161.159 36.545 165.022 36.545 165.022 35" fill="#fefefe" fill-rule="evenodd"/><path d="M1259.2713,184.592a0.79984,0.79984,0,0,1-.71312-0.29713,0.89371,0.89371,0,0,1-.23771-0.65369v-1.36681h5.58608v-1.54509h-5.58608v-1.36681a0.93866,0.93866,0,0,1,.95082-0.95082h5.64551l0.2377-1.54509h-5.88321a2.511,2.511,0,0,0-2.49591,2.49591v4.2787a2.52747,2.52747,0,0,0,.71312,1.72336,2.57644,2.57644,0,0,0,1.7828.77255h5.88321l-0.2377-1.54509h-5.64551Z" transform="translate(-1090.50542 -141.8666)" fill="#fefefe" fill-rule="evenodd"/><path d="M1272.28569,176.86656h-5.28895v9.27052h1.48565v-1.84222h3.8033a3.24962,3.24962,0,0,0,3.32788-3.32788v-0.77254a3.32242,3.32242,0,0,0-3.32788-3.32788h0Zm1.84221,4.10042a2.13839,2.13839,0,0,1-.53484,1.30738,1.84357,1.84357,0,0,1-1.30737.53484h-3.8033v-4.39755h3.8033a1.80135,1.80135,0,0,1,1.84221,1.78279V180.967Z" transform="translate(-1090.50542 -141.8666)" fill="#fefefe" fill-rule="evenodd"/><polygon points="196.221 35 194.735 35 194.735 38.863 188.495 38.863 188.495 35 187.01 35 187.01 44.27 188.495 44.27 188.495 40.408 194.735 40.408 194.735 44.27 196.221 44.27 196.221 35" fill="#fefefe" fill-rule="evenodd"/><path d="M1291.18327,184.592a0.757,0.757,0,0,1-.65368-0.29713,0.95424,0.95424,0,0,1-.29713-0.65369v-1.36681h5.6455v-1.54509h-5.6455v-1.36681a0.93866,0.93866,0,0,1,.95081-0.95082h5.64551l0.23771-1.54509h-5.88323a2.46052,2.46052,0,0,0-2.43647,2.49591v4.2787a2.286,2.286,0,0,0,.71311,1.72336,2.33825,2.33825,0,0,0,1.72336.77255h5.88323l-0.23771-1.54509h-5.64551Z" transform="translate(-1090.50542 -141.8666)" fill="#fefefe" fill-rule="evenodd"/><polygon points="217.436 35 208.225 35 208.225 36.545 212.088 36.545 212.088 44.27 213.573 44.27 213.573 36.545 217.436 36.545 217.436 35" fill="#fefefe" fill-rule="evenodd"/><path d="M1324.69975,176.926a0.82443,0.82443,0,0,1,.416.71311v8.498h-1.48567V179.4219c-1.78278,1.78279-6.418,6.47748-6.418,6.47748a0.73588,0.73588,0,0,1-.832.17828,0.77219,0.77219,0,0,1-.4754-0.71312v-8.498h1.48567v6.65575c1.78278-1.78279,6.47747-6.418,6.47747-6.418a0.71537,0.71537,0,0,1,.832-0.17828h0Z" transform="translate(-1090.50542 -141.8666)" fill="#fefefe" fill-rule="evenodd"/><polygon points="251.785 35 242.573 35 242.573 36.545 246.436 36.545 246.436 44.27 247.922 44.27 247.922 36.545 251.785 36.545 251.785 35" fill="#fefefe" fill-rule="evenodd"/><path d="M1346.39039,184.592a0.79984,0.79984,0,0,1-.71312-0.29713,0.89365,0.89365,0,0,1-.23771-0.65369v-1.36681h5.58608v-1.54509h-5.58608v-1.36681a0.93866,0.93866,0,0,1,.95082-0.95082h5.6455l0.23771-1.54509h-5.88321a2.511,2.511,0,0,0-2.49591,2.49591v4.2787a2.52747,2.52747,0,0,0,.71312,1.72336,2.57638,2.57638,0,0,0,1.78279.77255h5.88321l-0.23771-1.54509h-5.6455Z" transform="translate(-1090.50542 -141.8666)" fill="#fefefe" fill-rule="evenodd"/><path d="M1357.97853,177.4014l-4.21927,8.73568h1.72336l3.50615-7.30945,3.50615,7.30945h1.72338L1359.999,177.342a1.13019,1.13019,0,0,0-2.02049.05943h0Z" transform="translate(-1090.50542 -141.8666)" fill="#fefefe" fill-rule="evenodd"/><path d="M1367.54618,184.592a0.757,0.757,0,0,1-.65369-0.29713,0.95433,0.95433,0,0,1-.29715-0.65369v-1.36681h5.64551v-1.54509h-5.64551v-1.36681a0.93866,0.93866,0,0,1,.95084-0.95082h5.64551l0.23771-1.54509h-5.88322a2.4605,2.4605,0,0,0-2.43647,2.49591v4.2787a2.28592,2.28592,0,0,0,.7131,1.72336,2.44093,2.44093,0,0,0,1.72338.77255h5.88322l-0.23771-1.54509h-5.64551Z" transform="translate(-1090.50542 -141.8666)" fill="#fefefe" fill-rule="evenodd"/><path d="M1384.00727,179.36247a2.511,2.511,0,0,0-2.49588-2.49591H1375.331v9.27052h6.18037a2.65255,2.65255,0,0,0,2.49588-2.49591v-0.416a2.41712,2.41712,0,0,0-.7131-1.72337,2.647,2.647,0,0,0,.7131-1.72336v-0.416Zm-1.54507,4.2787a0.89372,0.89372,0,0,1-.23771.65369,0.94129,0.94129,0,0,1-.7131.29713h-4.63527v-2.31763h4.63527a0.93866,0.93866,0,0,1,.95081.95082v0.416Zm0-3.86272a0.89372,0.89372,0,0,1-.23771.65369,0.94129,0.94129,0,0,1-.7131.29713h-4.63527v-2.31763h4.63527a0.93866,0.93866,0,0,1,.95081.95082v0.416Z" transform="translate(-1090.50542 -141.8666)" fill="#fefefe" fill-rule="evenodd"/><path d="M1394.76348,176.926a0.77219,0.77219,0,0,1,.47539.71311v8.498h-1.48566V179.4219c-1.84221,1.78279-6.47745,6.47748-6.47745,6.47748a0.7359,0.7359,0,0,1-.832.17828,0.77218,0.77218,0,0,1-.47542-0.71312v-8.498h1.5451v6.65575c1.78278-1.78279,6.418-6.418,6.418-6.418a0.73587,0.73587,0,0,1,.832-0.17828h0Z" transform="translate(-1090.50542 -141.8666)" fill="#fefefe" fill-rule="evenodd"/><path d="M1407.95612,184.592h-0.65369v-4.81354a2.91663,2.91663,0,0,0-2.91189-2.91189h-3.44672a2.90472,2.90472,0,0,0-2.85246,2.91189V184.592h-1.248v1.54509h11.40987Zm-2.13936,0H1399.577v-4.81354a1.34482,1.34482,0,0,1,1.36683-1.36681h3.44672a1.3956,1.3956,0,0,1,1.42623,1.36681V184.592Z" transform="translate(-1090.50542 -141.8666)" fill="#fefefe" fill-rule="evenodd"/><path d="M1411.75942,184.592a0.757,0.757,0,0,1-.65369-0.29713,0.95433,0.95433,0,0,1-.29715-0.65369v-1.36681h5.64551v-1.54509h-5.64551v-1.36681a0.93866,0.93866,0,0,1,.95084-0.95082h5.64548l0.29715-1.54509h-5.94263a2.46052,2.46052,0,0,0-2.43651,2.49591v4.2787a2.28594,2.28594,0,0,0,.71313,1.72336,2.44093,2.44093,0,0,0,1.72338.77255h5.94263l-0.29715-1.54509h-5.64548Z" transform="translate(-1090.50542 -141.8666)" fill="#fefefe" fill-rule="evenodd"/><polygon points="338.369 35 336.883 35 336.883 38.863 330.643 38.863 330.643 35 329.098 35 329.098 44.27 330.643 44.27 330.643 40.408 336.883 40.408 336.883 44.27 338.369 44.27 338.369 35" fill="#fefefe" fill-rule="evenodd"/><path d="M1439.68981,176.926a0.77222,0.77222,0,0,1,.47542.71311v8.498h-1.48566V179.4219c-1.78281,1.78279-6.47748,6.47748-6.47748,6.47748a0.71536,0.71536,0,0,1-.832.17828,0.8808,0.8808,0,0,1-.47542-0.71312v-8.498h1.5451v6.65575c1.78278-1.78279,6.418-6.418,6.418-6.418a0.73588,0.73588,0,0,1,.832-0.17828h0Z" transform="translate(-1090.50542 -141.8666)" fill="#fefefe" fill-rule="evenodd"/><path d="M1444.50336,184.592a0.757,0.757,0,0,1-.65369-0.29713,0.95433,0.95433,0,0,1-.29715-0.65369v-1.36681h5.64551v-1.54509h-5.64551v-1.36681a0.97733,0.97733,0,0,1,.95084-0.95082h5.64548l0.29715-1.54509h-5.94263a2.49949,2.49949,0,0,0-2.43651,2.49591v4.2787a2.28594,2.28594,0,0,0,.71313,1.72336,2.44093,2.44093,0,0,0,1.72338.77255h5.94263l-0.29715-1.54509h-5.64548Z" transform="translate(-1090.50542 -141.8666)" fill="#fefefe" fill-rule="evenodd"/></svg>