<svg width="40" height="48" viewBox="0 0 283.5 259.1" xmlns="http://www.w3.org/2000/svg"><path d="M78.2 220l-39.1 39.1L0 220h78.2z" fill="#48dad0"/><path d="M135.4 131.2c-8.2-9.7-7.8-14.9-2.7-20 6.1-6.1 12.4-3.5 19.4 3.3l-16.7 16.7zm83.7-106.4c6.1-6.1 12.4-3.5 19.4 3.3l-16.7 16.7c-8.2-9.7-7.8-14.9-2.7-20zm50.5 17.1C262 53.2 248.8 71.7 235 57.8l35.1-35.1c-3.1-3.4-5.5-6.2-7.4-8-18.9-19-40.2-19.2-57-2.6-11.2 11.1-14.1 23.9-10.8 36l-11-12.5c-3.2 1.8-16.7 13.6-6.6 31.6l-12.6-10.5L148 73.4 170.6 96c-17.4-13.8-36.2-12.5-51.3 2.6-16.1 16.1-15 35.6-2.9 51.7l-2.4-2.4c-16-16.1-33.3-10.5-41.9-1.9-6.6 6.6-10.7 15.7-9 22.1l-34.6-34.6L10 151.8 78.2 220h36.6l-24.6-24.6c-12.9-13.1-13.1-20.1-6.9-26.3 6-6 13.1-2.3 25.5 10.1l24.3 24.3 18.3-18.3-23-23c16.6 12.6 36.5 13.2 54.3-4.5l.3-.3c10.9-10.1 14.1-19.8 14.1-19.8l-13.8-9.3c-7.6 11.4-20.8 29.8-34.6 16l35.2-35.2 21.9 21.9 19.1-19.1-27.4-27.4c-12.8-12.8-5.2-24.8.1-29.4 2.5 5.3 6.1 10.4 10.8 15 17.7 17.8 40.7 21.4 60.8 1.3l.3-.3c10.9-10.1 14.1-19.8 14.1-19.8l-14-9.4z" fill="#383c45"/></svg>
