<?xml version="1.0" encoding="UTF-8" standalone="no"?>
<svg
   xmlns:dc="http://purl.org/dc/elements/1.1/"
   xmlns:cc="http://creativecommons.org/ns#"
   xmlns:rdf="http://www.w3.org/1999/02/22-rdf-syntax-ns#"
   xmlns:svg="http://www.w3.org/2000/svg"
   xmlns="http://www.w3.org/2000/svg"
   viewBox="0 0 1052.3625 744.09998"
   height="744.09998"
   width="1052.3625"
   xml:space="preserve"
   version="1.1"
   id="svg2"><metadata
     id="metadata8"><rdf:RDF><cc:Work
         rdf:about=""><dc:format>image/svg+xml</dc:format><dc:type
           rdf:resource="http://purl.org/dc/dcmitype/StillImage" /></cc:Work></rdf:RDF></metadata><defs
     id="defs6"><clipPath
       id="clipPath16"
       clipPathUnits="userSpaceOnUse"><path
         id="path18"
         d="m 0,595.28 841.89,0 L 841.89,0 0,0 0,595.28 Z" /></clipPath></defs><g
     transform="matrix(1.25,0,0,-1.25,0,744.1)"
     id="g10"><g
       id="g12"><g
         clip-path="url(#clipPath16)"
         id="g14"><g
           transform="translate(474.9648,334.7031)"
           id="g20"><path
             id="path22"
             style="fill:#009cd3;fill-opacity:1;fill-rule:evenodd;stroke:none"
             d="m 0,0 11.105,0 -20.593,-68.418 -11.11,0 L 0,0 Z M 18.76,0 29.873,0 9.271,-68.418 -1.83,-68.418 18.76,0 Z m 59.4,-34.734 c 0,-4.4 0.813,-7.716 2.41,-9.968 1.618,-2.241 4,-3.357 7.137,-3.357 3.147,0 5.545,1.131 7.168,3.388 1.627,2.245 2.447,5.566 2.447,9.937 0,4.403 -0.797,7.698 -2.408,9.922 -1.594,2.215 -3.969,3.313 -7.141,3.313 -3.142,0 -5.552,-1.115 -7.168,-3.337 -1.632,-2.223 -2.445,-5.523 -2.445,-9.898 m -12.119,-0.091 c 0,6.671 1.941,11.947 5.846,15.788 3.902,3.852 9.187,5.783 15.886,5.783 6.729,0 12.032,-1.931 15.875,-5.783 3.862,-3.841 5.788,-9.117 5.788,-15.788 0,-6.666 -1.946,-11.944 -5.821,-15.831 -3.881,-3.867 -9.183,-5.813 -15.908,-5.813 -6.707,0 -11.99,1.931 -15.861,5.802 -3.877,3.871 -5.805,9.14 -5.805,15.842 m -28.268,-20.822 -8.707,0 0,14.828 8.707,0 c 1.647,-3.595 6.27,-6.453 8.934,-6.453 3.977,0 5.83,0.834 5.83,3.347 0,1.501 -1.879,2.873 -5.641,4.135 -1.164,0.391 -6.291,1.679 -6.769,1.807 -4.354,1.162 -7.278,2.537 -8.811,4.132 -1.673,1.762 -2.507,4.447 -2.507,8.058 0,3.836 1.334,6.897 4.009,9.159 2.674,2.246 6.323,3.38 10.916,3.38 3.446,0 7.295,-0.761 10.973,-2.871 l 0,2.282 8.361,0 0,-13.716 -8.361,0 c -1.92,4.072 -5.717,6.31 -9.26,6.31 -2.384,0 -4.57,-0.78 -4.57,-3.647 0,-1.515 1.698,-2.86 5.09,-4.038 1.429,-0.495 6.74,-1.706 7.219,-1.819 4.052,-0.876 6.984,-2.27 8.775,-4.236 1.797,-1.949 2.701,-4.675 2.701,-8.198 0,-3.992 -1.342,-7.183 -4.019,-9.582 -2.672,-2.404 -6.258,-3.62 -10.743,-3.62 -3.787,0 -8.252,1.176 -12.127,3.312 l 0,-2.57 z" /></g><path
           id="path24"
           style="fill:#f89734;fill-opacity:1;fill-rule:evenodd;stroke:none"
           d="m 275.6,326.951 -12.45,0 0,11.872 12.45,0 0,-11.872 z m -11.933,-14.162 -5.667,0 0,8.093 17.6,0 0,-33.486 9.887,0 0,25.393 -5.677,0 0,8.093 17.236,0 0,-4.397 c 5.695,5.928 20.293,7.796 25.914,1.611 2.337,-2.598 3.509,-6.651 3.509,-12.148 l 0,-18.552 5.573,0 0,-8.373 -17.449,0 0,25.435 c 0,11.973 -17.285,8.126 -17.285,-3.521 l 0,-13.541 6.394,0 0,-8.373 -40.039,0 c 0,11.255 0.004,22.507 0.004,33.766 m 188.729,-5.054 -13.238,0 0,13.147 13.238,0 0,-13.147 z m -96.568,4.881 -8.724,0 0,-21.343 c 0,-1.35 0.231,-2.328 0.694,-2.943 0.464,-0.614 1.212,-0.929 2.211,-0.929 l 5.819,0.008 0,-9.383 c -0.662,-0.062 -6.921,-0.097 -7.639,-0.097 -4.484,0 -7.755,0.895 -9.842,2.689 -2.092,1.82 -3.121,4.64 -3.121,8.481 l 0,23.517 -6.677,0 0,8.266 6.677,0 0,9.708 11.878,0 0,-9.708 8.724,0 0,-8.266 z m 12.049,-8.314 18.116,0 0,0.931 c 0,2.493 -0.837,4.528 -2.514,6.074 -1.7,1.578 -3.862,2.363 -6.496,2.363 -2.692,0 -4.876,-0.864 -6.58,-2.572 -1.68,-1.72 -2.526,-3.987 -2.526,-6.796 m -12.138,-4.378 c 0,6.826 1.889,12.206 5.67,16.143 3.786,3.943 8.959,5.921 15.48,5.921 6.693,0 11.836,-1.873 15.459,-5.59 3.619,-3.722 5.424,-9.044 5.424,-15.967 0,-0.405 -0.042,-2.678 -0.176,-3.74 l -29.806,-0.048 c 0,-3.28 0.807,-5.812 2.451,-7.578 1.615,-1.773 3.97,-2.654 7.007,-2.654 2.216,0 4.069,0.46 5.542,1.409 1.465,0.941 2.595,2.355 3.384,4.264 l 11.081,0 c -1.009,-4.746 -3.108,-8.305 -6.314,-10.646 -3.203,-2.339 -7.598,-3.509 -13.167,-3.509 -6.979,0 -12.398,1.916 -16.26,5.778 -4.335,4.355 -5.775,10.21 -5.775,16.217 m 47.712,12.865 -5.628,0 0,8.093 17.494,0 0,-4.957 c 2.974,5.646 12.089,6.823 17.82,5.719 l 0,-9.938 c -4.955,0.815 -11.179,0.359 -14.653,-3.859 -2.119,-2.569 -3.167,-6.18 -3.167,-11.624 l 0,-8.827 5.941,0 0,-8.373 -17.807,0 0,33.766 z m 48.945,-33.766 -13.238,0 0,13.241 13.238,0 0,-13.241 z" /></g></g></g></svg>