<?xml version="1.0" encoding="UTF-8" standalone="no"?>
<svg
   xmlns:dc="http://purl.org/dc/elements/1.1/"
   xmlns:cc="http://creativecommons.org/ns#"
   xmlns:rdf="http://www.w3.org/1999/02/22-rdf-syntax-ns#"
   xmlns:svg="http://www.w3.org/2000/svg"
   xmlns="http://www.w3.org/2000/svg"
   viewBox="0 0 595.27557 841.88977"
   id="svg2"
   height="841.88977"
   width="595.27557"
   version="1.1">
  <metadata
     id="metadata96">
    <rdf:RDF>
      <cc:Work
         rdf:about="">
        <dc:format>image/svg+xml</dc:format>
        <dc:type
           rdf:resource="http://purl.org/dc/dcmitype/StillImage" />
      </cc:Work>
    </rdf:RDF>
  </metadata>
  <defs
     id="defs94" />
  <g
     id="Layer1000">
    <path
       id="path5"
       style="fill:#000000;fill-rule:evenodd"
       d="m 67.7222,42.4691 c 0.4296,0.7033 0.835,1.4133 1.1869,2.1597 1.1759,2.4914 1.7194,5.2554 1.4356,7.9995 -0.2673,2.5836 -1.6465,5.2148 -3.7341,6.7794 -2.045,1.5327 -5.0702,2.2321 -7.5141,1.2814 -1.2073,-0.4698 -2.2561,-1.215 -3.0464,-2.2492 -0.4228,-0.5527 -0.7491,-1.1474 -1.0359,-1.7784 -0.1286,-0.2828 -0.229,-0.5763 -0.3238,-0.8718 -0.0853,-0.2662 -0.119,-0.7202 -0.2656,-0.933 0,1.1207 0.1083,2.2323 0.5283,3.2825 0.4133,1.0339 0.9604,1.9733 1.6789,2.8257 1.7986,2.1338 4.393,3.5784 7.1461,4.0087 0.3812,0.0597 1.3726,0.1172 1.3726,0.1172 l 0,0 3.2958,-0.0114 0,0 c 0,0 2.7231,0 4.0889,0 0,-1.9719 7e-4,-22.6103 0,-22.6103 -1.5824,0 -3.2308,0 -4.8132,0 l 0,0 0,0 z" />
    <path
       id="path7"
       style="fill:#000000;fill-rule:evenodd"
       d="m 65.0838,58.9767 c 0.9183,-0.6923 1.6475,-1.6193 2.1014,-2.6761 2.4765,-5.7669 -4.3241,-11.4917 -9.5626,-7.9376 0.0681,0.0353 0.1406,0.0653 0.2114,0.0948 0.5803,0.2418 1.0062,-0.1052 1.5534,-0.3138 0.4891,-0.1865 1.0165,-0.2576 1.5384,-0.2344 1.2078,0.0539 2.3865,0.5849 3.2659,1.4061 1.7902,1.6712 2.2957,4.7917 0.6501,6.7583 -1.849,-1.8637 -3.6976,-3.7275 -5.5445,-5.5932 -0.5871,-0.5926 -1.919,-1.9401 -1.919,-1.9401 0,0 -0.4992,0.3312 -0.7576,0.5898 -0.5063,0.5061 -0.9162,1.0949 -1.2359,1.7349 -2.9375,5.8805 3.9437,11.8296 9.4269,8.3154 -0.3845,-0.1892 -0.5633,-0.2194 -0.9602,-0.1057 -1.1267,0.322 -1.8837,0.7168 -3.1069,0.4534 -1.068,-0.2298 -2.0438,-0.8067 -2.7668,-1.625 -1.4683,-1.6619 -1.9477,-4.6802 -0.3327,-6.4334 2.4808,2.5011 4.9604,5.0033 7.4387,7.5066 l 0,0 0,0 z" />
    <path
       id="path9"
       style="fill:#000000;fill-rule:evenodd"
       d="M 53.5546,63.1331 C 52.942,61.9079 52.4741,60.574 52.2005,59.2043 51.9272,57.8346 51.848,56.4292 52.0133,55.0609 c 0.1577,-1.3098 0.5565,-2.5944 1.1755,-3.7579 0.6188,-1.1634 1.4584,-2.2055 2.4983,-3.0305 1.0193,-0.8084 2.2781,-1.3672 3.5928,-1.6201 1.315,-0.2531 2.6858,-0.2003 3.9291,0.2139 0.6018,0.2007 1.1587,0.4947 1.6648,0.861 0.5063,0.3661 0.961,0.8045 1.3587,1.2935 0.2251,0.2766 0.4243,0.5706 0.6057,0.8755 0.1811,0.3051 0.3443,0.6213 0.4974,0.9421 0.0682,0.1435 0.1302,0.2903 0.1892,0.4384 0.0586,0.1483 0.1136,0.298 0.1676,0.4475 0.0564,0.1554 0.0978,0.3262 0.1429,0.4939 0.0454,0.1679 0.0946,0.3328 0.1663,0.4765 0,-0.0602 0,-0.1207 0,-0.1814 0,-0.0604 0,-0.121 0,-0.1812 0,-1.1437 -0.2325,-2.2502 -0.6623,-3.276 -0.4297,-1.0261 -1.0567,-1.9715 -1.8457,-2.7933 -0.9898,-1.0313 -2.1807,-1.8694 -3.4768,-2.4939 -1.296,-0.6245 -2.6979,-1.0352 -4.1093,-1.2118 -0.7515,-0.0939 -1.5172,-0.0888 -2.2806,-0.088 -0.7633,9e-4 -5.7408,0 -5.7408,0 0,2.3531 0,22.6103 0,22.6103 0.7928,0 1.6558,0 2.4483,0 0.7926,0 1.585,0 2.3776,0 -0.2123,-0.3227 -0.415,-0.5982 -0.608,-0.9305 -0.1931,-0.332 -0.3765,-0.67 -0.5494,-1.0158 l 0,0 0,0 z" />
  </g>
  <g
     id="Layer1001">
    <g
       id="Layer1002">
      <path
         id="path13"
         style="fill:#000000;fill-rule:evenodd"
         d="m 67.7222,82.4597 c 0.4296,0.7033 0.835,1.4134 1.1869,2.1597 1.1759,2.4914 1.7194,5.2554 1.4356,7.9995 -0.2673,2.5836 -1.6465,5.2148 -3.7341,6.7794 -2.045,1.5327 -5.0702,2.2321 -7.5141,1.2814 -1.2073,-0.4698 -2.2561,-1.2149 -3.0464,-2.2491 -0.4228,-0.5528 -0.7491,-1.1475 -1.0359,-1.7785 -0.1286,-0.2828 -0.229,-0.5763 -0.3238,-0.8718 -0.0853,-0.2662 -0.119,-0.7202 -0.2656,-0.933 0,1.1207 0.1083,2.2323 0.5283,3.2825 0.4133,1.0339 0.9604,1.9733 1.6789,2.8257 1.7986,2.1338 4.393,3.5784 7.1461,4.0087 0.3812,0.0597 1.3726,0.1172 1.3726,0.1172 l 0,0 3.2958,-0.0114 0,0 c 0,0 2.7231,0 4.0889,0 0,-1.9718 7e-4,-22.6103 0,-22.6103 -1.5824,0 -3.2308,0 -4.8132,0 l 0,0 0,0 z" />
      <path
         id="path15"
         style="fill:#000000;fill-rule:evenodd"
         d="m 65.0838,98.9674 c 0.9183,-0.6924 1.6475,-1.6194 2.1014,-2.6762 2.4765,-5.7668 -4.3241,-11.4917 -9.5626,-7.9375 0.0681,0.0352 0.1406,0.0652 0.2114,0.0947 0.5803,0.2418 1.0062,-0.1052 1.5534,-0.3138 0.4891,-0.1865 1.0165,-0.2576 1.5384,-0.2344 1.2078,0.0539 2.3865,0.585 3.2659,1.4061 1.7902,1.6712 2.2957,4.7917 0.6501,6.7583 -1.849,-1.8637 -3.6976,-3.7275 -5.5445,-5.5932 -0.5871,-0.5926 -1.919,-1.9401 -1.919,-1.9401 0,0 -0.4992,0.3312 -0.7576,0.5898 -0.5063,0.5062 -0.9162,1.0949 -1.2359,1.7349 -2.9375,5.8805 3.9437,11.8296 9.4269,8.3155 -0.3845,-0.1892 -0.5633,-0.2194 -0.9602,-0.1058 -1.1267,0.322 -1.8837,0.7168 -3.1069,0.4534 -1.068,-0.2297 -2.0438,-0.8066 -2.7668,-1.625 -1.4683,-1.6619 -1.9477,-4.6802 -0.3327,-6.4333 2.4808,2.501 4.9604,5.0032 7.4387,7.5066 l 0,0 0,0 z" />
      <path
         id="path17"
         style="fill:#000000;fill-rule:evenodd"
         d="m 53.5546,103.1237 c -0.6126,-1.2252 -1.0805,-2.559 -1.3541,-3.9288 -0.2733,-1.3697 -0.3525,-2.7751 -0.1872,-4.1434 0.1577,-1.3098 0.5565,-2.5944 1.1755,-3.7579 0.6188,-1.1634 1.4584,-2.2055 2.4983,-3.0305 1.0193,-0.8084 2.2781,-1.3672 3.5928,-1.62 1.315,-0.2532 2.6858,-0.2004 3.9291,0.2138 0.6018,0.2007 1.1587,0.4948 1.6648,0.861 0.5063,0.3661 0.961,0.8045 1.3587,1.2936 0.2251,0.2766 0.4243,0.5705 0.6057,0.8754 0.1811,0.3052 0.3443,0.6213 0.4974,0.9421 0.0682,0.1435 0.1302,0.2903 0.1892,0.4384 0.0586,0.1483 0.1136,0.298 0.1676,0.4475 0.0564,0.1554 0.0978,0.3263 0.1429,0.4939 0.0454,0.168 0.0946,0.3328 0.1663,0.4766 0,-0.0603 0,-0.1208 0,-0.1815 0,-0.0604 0,-0.121 0,-0.1812 0,-1.1436 -0.2325,-2.2501 -0.6623,-3.276 -0.4297,-1.0261 -1.0567,-1.9715 -1.8457,-2.7933 -0.9898,-1.0313 -2.1807,-1.8694 -3.4768,-2.4939 -1.296,-0.6245 -2.6979,-1.0351 -4.1093,-1.2118 -0.7515,-0.0939 -1.5172,-0.0888 -2.2806,-0.088 -0.7633,9e-4 -5.7408,0 -5.7408,0 0,2.3532 0,22.6103 0,22.6103 0.7928,0 1.6558,0 2.4483,0 0.7926,0 1.585,0 2.3776,0 -0.2123,-0.3227 -0.415,-0.5982 -0.608,-0.9305 -0.1931,-0.332 -0.3765,-0.67 -0.5494,-1.0158 l 0,0 0,0 z" />
    </g>
    <g
       id="Layer1003">
      <path
         id="path20"
         style="fill:none"
         d="m 127.712,101.1872 -0.005,-0.0115 -0.005,-0.0115 -0.005,-0.0115 0,0 -0.1329,-0.2513 -0.1532,-0.2458 -0.1717,-0.2372 -0.1887,-0.2257 -0.2035,-0.2114 -0.2167,-0.1941 -0.2282,-0.174 -0.2376,-0.1509 -0.2453,-0.1249 -0.2513,-0.096 -0.2553,-0.0642 -0.2577,-0.0295 -0.2581,0.008 0,0 -0.2888,0.0265 -0.2735,0.0772 -0.2536,0.131 -0.2289,0.1883 -0.1995,0.2488 -0.1654,0.3128 -0.1265,0.3799 0,0 -0.054,0.2833 -0.0223,0.2955 0.007,0.304 0.0352,0.3082 0.0614,0.3084 0.0856,0.3046 0.1081,0.2968 0.1288,0.2847 0,0 0.01,0.0199 0.0102,0.02 0.0103,0.0199 0,0 7e-4,0.001 6e-4,0.001 5e-4,0.001 0,0 0.0879,0.1603 0.0948,0.1552 0.1016,0.1492 0,0 0.1966,0.252 0.2149,0.2291 0.2317,0.2027 0.2467,0.1729 0.2603,0.1396 0.2722,0.1029 0.2824,0.0626 0.291,0.0191 0.2981,-0.0281 0,0 0.2681,-0.066 0.2458,-0.0984 0.2229,-0.1286 0.1996,-0.1559 0.1758,-0.1809 0.1514,-0.2033 0.1267,-0.2233 0.1013,-0.2406 0.0755,-0.2555 0.0493,-0.268 0.0224,-0.2777 -0.005,-0.2851 -0.0326,-0.2899 -0.061,-0.2921 -0.0896,-0.292 0,0 -0.0193,-0.0477 -0.0202,-0.0475 -0.0209,-0.0471 z" />
      <path
         id="path22"
         style="fill:none"
         d="m 91.2164,87.0821 0.5677,-0.0069 0.4458,-0.0378 0.3438,-0.0579 0.2614,-0.0678 0.1989,-0.0672 0.156,-0.0561 0,0 0.2028,-0.1043 0.1599,-0.1632 0.138,-0.2297 0,0 0.1146,-0.4085 0.0745,-0.412 0.0222,-0.3448 0,0 -0.0085,-0.2549 -0.0201,-0.2812 -0.0438,-0.2962 -0.0799,-0.2999 -0.128,-0.292 -0.1884,-0.2729 -0.261,-0.2423 0,0 -0.2655,-0.1502 -0.2796,-0.0728 -0.2962,-0.0045 -0.3151,0.0545 -0.3364,0.1044 -0.36,0.1451 0,0 -0.2635,0.1266 -0.2671,0.1514 -0.2681,0.1751 -0.2664,0.1975 -0.2619,0.2187 -0.2548,0.2386 -0.245,0.2572 -0.2324,0.2747 0,0 -0.1952,0.274 -0.1573,0.2808 -0.1238,0.2875 -0.0941,0.294 -0.0687,0.3005 -0.0474,0.3069 0,0 -0.0071,0.4269 0,0 0.2242,-2e-4 0.2826,-7e-4 0.3272,-6e-4 0.3577,-2e-4 0.3743,6e-4 0.3771,0.0016 0.3659,0.0032 0.3407,0.005 z" />
      <path
         id="path24"
         style="fill:none"
         d="m 117.6175,99.1154 -0.4503,0.0504 -0.3346,0.0907 -0.2611,0.1298 -0.2298,0.1681 -0.2405,0.205 0,0 -0.2189,0.271 -0.2405,0.395 -0.2031,0.3778 -0.1069,0.2198 0,0 -0.0827,0.2104 -0.1072,0.3339 -0.0618,0.3498 0,0 -0.0206,0.3907 -0.0137,0.328 0.003,0.2883 0.0297,0.2716 0.0662,0.2779 0.1126,0.307 0.1688,0.3592 0,0 0.194,0.2949 0.2346,0.1907 0.2854,0.0855 0.3457,-0.0206 0,0 0.3313,-0.1029 0.3263,-0.166 0.3036,-0.2075 0.2629,-0.2273 0,0 0.2032,-0.2137 0.1919,-0.2339 0.1789,-0.2512 0.164,-0.2655 0.1472,-0.277 0.1285,-0.2856 0.1079,-0.2913 0.0855,-0.294 0.0611,-0.2939 0.035,-0.2909 0,0 0.007,-0.2555 -0.0158,-0.2687 -0.0399,-0.2737 -0.0655,-0.2702 -0.0922,-0.2587 -0.1204,-0.2389 -0.1497,-0.2108 -0.1805,-0.1745 -0.2125,-0.1299 -0.2458,-0.0772 -0.2805,-0.0161 z" />
      <path
         id="path26"
         style="fill:none"
         d="m 151.9826,99.3836 -0.2174,0.1523 -0.2113,0.1746 -0.2036,0.1947 -0.1943,0.2127 -0.1837,0.2285 -0.1715,0.2422 -0.1579,0.2537 -0.1426,0.2629 -0.1259,0.2701 -0.1078,0.275 -0.088,0.2778 -0.0669,0.2784 -0.0443,0.2769 -0.02,0.2731 0.006,0.2672 0,0 0.0335,0.2504 0.0635,0.2516 0.0919,0.2462 0.1184,0.2339 0.1435,0.2148 0.1668,0.189 0.1885,0.1565 0.2083,0.1169 0.2267,0.0708 0.2433,0.0179 0.2582,-0.042 0.2715,-0.1085 0,0 0.2267,-0.136 0.2125,-0.1634 0.1984,-0.1878 0.1845,-0.2093 0.1706,-0.2279 0.1568,-0.2434 0.1433,-0.2562 0.1296,-0.2659 0.1163,-0.2727 0.103,-0.2766 0.0897,-0.2776 0.0767,-0.2755 0.0636,-0.2707 0.0508,-0.2628 0.038,-0.252 0,0 0.007,-0.1828 -0.0118,-0.1746 -0.0262,-0.1791 0,0 -0.0662,-0.28 -0.0973,-0.2568 -0.1257,-0.2296 -0.1516,-0.198 -0.175,-0.1626 -0.1959,-0.1227 -0.2141,-0.079 -0.2299,-0.0309 -0.2431,0.0211 -0.2538,0.0774 -0.2619,0.1378 z" />
      <path
         id="path28"
         style="fill:none"
         d="m 154.1284,87.0821 0.5677,-0.0069 0.4458,-0.0378 0.3437,-0.0579 0.2614,-0.0678 0.1988,-0.0672 0.1561,-0.0561 0,0 0.2029,-0.1043 0.1598,-0.1632 0.1381,-0.2297 0,0 0.1144,-0.4085 0.0746,-0.412 0.0222,-0.3448 0,0 -0.008,-0.2549 -0.0201,-0.2812 -0.0438,-0.2962 -0.0799,-0.2999 -0.128,-0.292 -0.1884,-0.2729 -0.2609,-0.2423 0,0 -0.2655,-0.1502 -0.2797,-0.0728 -0.2963,-0.0045 -0.315,0.0545 -0.3364,0.1044 -0.36,0.1451 0,0 -0.2635,0.1266 -0.2671,0.1514 -0.2681,0.1751 -0.2664,0.1975 -0.2619,0.2187 -0.2548,0.2386 -0.245,0.2572 -0.2324,0.2747 0,0 -0.1952,0.274 -0.1574,0.2808 -0.1237,0.2875 -0.0942,0.294 -0.0687,0.3005 -0.0474,0.3069 0,0 -0.007,0.4269 0,0 0.2242,-2e-4 0.2826,-7e-4 0.3271,-6e-4 0.3577,-2e-4 0.3744,6e-4 0.3771,0.0016 0.3659,0.0032 0.3408,0.005 z" />
      <path
         id="path30"
         style="fill:none"
         d="m 108.4843,101.9127 0.3579,-0.007 0.4295,-0.0197 0.4267,-0.0561 0.3496,-0.1159 0,0 0.1687,-0.138 0.1276,-0.1957 0.0908,-0.2337 0,0 0.0711,-0.2576 0.0409,-0.2494 0.0102,-0.2155 0,0 -0.0414,-0.3999 -0.1189,-0.4061 -0.2204,-0.3439 0,0 -0.0671,-0.0594 -0.075,-0.0543 -0.0769,-0.0582 0,0 -0.309,-0.1838 -0.3101,-0.0633 -0.3039,0.0273 -0.2906,0.0881 -0.2702,0.1188 -0.2426,0.1198 0,0 -0.2755,0.1582 -0.2742,0.2057 -0.2586,0.2463 -0.2289,0.2804 -0.185,0.3077 0,0 -0.1975,0.4719 -0.1269,0.4339 -0.0704,0.3582 -0.0279,0.2452 0,0 0.3063,0.003 0.4513,3e-4 0.488,-0.002 0.4162,-0.003 0.2362,-0.003 z" />
      <path
         id="path32"
         style="fill:none"
         d="m 100.7976,100.0234 -0.2418,-0.1187 -0.2594,-0.0779 -0.2667,-0.0381 0,0 -0.2406,0.0215 -0.2549,0.0261 -0.1956,-0.0721 0,0 0.252,-0.1693 0.2419,-0.1839 0.2301,-0.1983 0.217,-0.2122 0.2022,-0.2257 0.186,-0.239 0.1682,-0.2518 0.1488,-0.2643 0.1281,-0.2763 0,0 0.0999,-0.2608 0.0969,-0.3097 0.0733,-0.3338 0.0295,-0.333 -0.0347,-0.3076 -0.1194,-0.2572 0,0 -0.2628,-0.1905 -0.3147,-0.0179 -0.316,0.106 -0.2665,0.1813 0,0 -0.2295,0.2479 -0.1911,0.2855 -0.1567,0.3119 -0.1269,0.3272 -0.1012,0.3313 -0.08,0.3243 0,0 -0.0574,0.2832 -0.0474,0.2867 -0.0385,0.2896 -0.0309,0.292 -0.0241,0.2938 -0.0187,0.2954 -0.0143,0.2962 -0.011,0.2966 -0.0089,0.2966 -0.0079,0.2959 -0.008,0.2949 -0.0092,0.2933 -0.0116,0.2912 -0.015,0.2886 0,0 -0.0078,0.2869 0.0094,0.31 0.0272,0.3243 0.0454,0.3299 0.0642,0.3265 0.0834,0.3143 0.1032,0.2933 0.1234,0.2635 0,0 0.175,0.2376 0.1896,0.118 0.1984,0.0179 0.201,-0.0624 0.1978,-0.1232 0.1885,-0.1643 0.1733,-0.1859 0.1521,-0.1878 0,0 0.206,-0.2989 0.1641,-0.3002 0.1281,-0.3049 0.0979,-0.313 0.0737,-0.3246 0.0553,-0.3398 0.0428,-0.3583 0,0 -0.0133,-0.3385 -0.0557,-0.3384 -0.1025,-0.3257 -0.1538,-0.3005 -0.2095,-0.2625 -0.2697,-0.2122 z" />
      <path
         id="path34"
         style="fill:none"
         d="m 91.6932,101.9127 0.358,-0.007 0.4295,-0.0197 0.4267,-0.0561 0.3496,-0.1159 0,0 0.1687,-0.138 0.1276,-0.1957 0.0907,-0.2337 0,0 0.0711,-0.2576 0.041,-0.2494 0.0102,-0.2155 0,0 -0.0415,-0.3999 -0.1188,-0.4061 -0.2204,-0.3439 0,0 -0.0672,-0.0594 -0.0749,-0.0543 -0.077,-0.0582 0,0 -0.3089,-0.1838 -0.3101,-0.0633 -0.3039,0.0273 -0.2907,0.0881 -0.2701,0.1188 -0.2426,0.1198 0,0 -0.2756,0.1582 -0.2741,0.2057 -0.2586,0.2463 -0.2289,0.2804 -0.185,0.3077 0,0 -0.1975,0.4719 -0.127,0.4339 -0.0704,0.3582 -0.0278,0.2452 0,0 0.3062,0.003 0.4514,3e-4 0.4879,-0.002 0.4163,-0.003 0.2361,-0.003 z" />
      <path
         id="path36"
         style="fill:none"
         d="m 170.9607,99.3836 -0.2175,0.1523 -0.2112,0.1746 -0.2036,0.1947 -0.1943,0.2127 -0.1837,0.2285 -0.1715,0.2422 -0.1578,0.2537 -0.1426,0.2629 -0.126,0.2701 -0.1077,0.275 -0.0881,0.2778 -0.0669,0.2784 -0.0443,0.2769 -0.02,0.2731 0.006,0.2672 0,0 0.0335,0.2504 0.0635,0.2516 0.0918,0.2462 0.1186,0.2339 0.1435,0.2148 0.1668,0.189 0.1884,0.1565 0.2084,0.1169 0.2266,0.0708 0.2433,0.0179 0.2582,-0.042 0.2715,-0.1085 0,0 0.2267,-0.136 0.2125,-0.1634 0.1984,-0.1878 0.1845,-0.2093 0.1706,-0.2279 0.1569,-0.2434 0.1432,-0.2562 0.1297,-0.2659 0.1162,-0.2727 0.103,-0.2766 0.0897,-0.2776 0.0766,-0.2755 0.0637,-0.2707 0.0508,-0.2628 0.038,-0.252 0,0 0.008,-0.1828 -0.0118,-0.1746 -0.0263,-0.1791 0,0 -0.0662,-0.28 -0.0972,-0.2568 -0.1258,-0.2296 -0.1516,-0.198 -0.175,-0.1626 -0.1959,-0.1227 -0.2141,-0.079 -0.2299,-0.0309 -0.2431,0.0211 -0.2538,0.0774 -0.2619,0.1378 z" />
      <path
         id="path38"
         style="fill:none"
         d="m 98.7153,87.0033 1e-4,0.0021 1e-4,0.0022 0,0.0022 0,0 0.0291,0.294 0.0451,0.2908 0.0612,0.2867 0,0 0.0714,0.2694 0.0864,0.2678 0.1009,0.2648 0.1154,0.2604 0.1296,0.2546 0.1436,0.2475 0.1573,0.2389 0.171,0.229 0.1844,0.2176 0.1975,0.2049 0.2105,0.1907 0.2232,0.1752 0.2358,0.1583 0.2481,0.1399 0.2602,0.1202 0.2721,0.0992 0.2839,0.0766 0,0 0.4224,0.0808 0.3928,0.0477 0.364,0.0167 0.3365,-0.012 0.3099,-0.0385 0.2846,-0.0627 0.2602,-0.0847 0.2369,-0.1044 0.2148,-0.122 0.1938,-0.1374 0.1736,-0.1503 0.1548,-0.1612 0.1369,-0.1698 0.1203,-0.1761 0.1045,-0.1802 0.09,-0.1821 0.0764,-0.1818 0.0641,-0.1792 0.0527,-0.1743 0.0424,-0.1673 0.0333,-0.158 0.0252,-0.1464 0.0183,-0.1327 0.0122,-0.1167 0.008,-0.0984 0.004,-0.078 0.001,-0.0551 -5e-4,-0.0303 -0.001,-0.0031 0,0 0.002,-0.083 0.001,-0.0831 -6e-4,-0.0833 0,0 4e-4,-0.0202 5e-4,-0.0201 4e-4,-0.0202 0,0 -0.0208,-0.2902 -0.0389,-0.2883 -0.0562,-0.2856 -0.0727,-0.2821 -0.0884,-0.2776 -0.1034,-0.2724 -0.1176,-0.2664 -0.1311,-0.2594 -0.1437,-0.2518 -0.1557,-0.2431 -0.1668,-0.2338 -0.1772,-0.2235 -0.1869,-0.2124 -0.1957,-0.2005 -0.2038,-0.1878 -0.2112,-0.1742 -0.2177,-0.1598 -0.2235,-0.1445 -0.2286,-0.1284 -0.2329,-0.1116 -0.2364,-0.0938 -0.2392,-0.0752 0,0 -0.3649,-0.0673 -0.345,-0.0438 -0.3273,-0.0189 -0.3119,0.0072 -0.2987,0.0346 -0.2877,0.063 -0.279,0.0928 -0.2724,0.1239 -0.2683,0.1561 -0.2662,0.1897 0,0 -0.1774,0.1618 -0.1577,0.1921 -0.138,0.2196 -0.1187,0.2443 -0.0995,0.2663 -0.0807,0.2857 -0.0619,0.3022 -0.0435,0.3159 -0.0253,0.3271 -0.0074,0.3353 0.0105,0.3408 0,0 0.0019,0.0361 0.0024,0.0362 0.0026,0.0361 z" />
      <path
         id="path40"
         style="fill:none"
         d="m 180.4122,99.1477 -0.3482,0.0654 -0.2881,0.1193 -0.2332,0.1642 -0.1841,0.2004 -0.1403,0.2278 -0.1021,0.2464 -0.0695,0.2561 -0.0422,0.2571 -0.0206,0.2492 -0.005,0.2326 0.006,0.2071 0.0113,0.1728 0,0 0.0409,0.2557 0.0809,0.3073 0.1108,0.338 0.1306,0.3478 0.1403,0.3366 0.1399,0.3047 0.1294,0.2517 0.1089,0.1779 0,0 0.2972,0.3967 0.2503,0.2814 0.2172,0.1739 0.198,0.0747 0.1926,-0.0166 0.2009,-0.0996 0,0 0.2643,-0.1996 0.2468,-0.2315 0.2273,-0.2517 0.2056,-0.2599 0.1815,-0.2562 0.1555,-0.2406 0,0 0.1651,-0.2891 0.1309,-0.2782 0.1016,-0.2772 0.0773,-0.2863 0.0581,-0.3051 0.0439,-0.3339 0.0348,-0.3728 0,0 0.003,-0.1527 -0.005,-0.1529 -0.0146,-0.1519 0,0 -0.0651,-0.2904 -0.1102,-0.2556 -0.1504,-0.2223 -0.186,-0.1902 -0.2166,-0.1595 -0.2424,-0.1302 -0.2635,-0.1021 -0.2798,-0.0756 -0.2912,-0.0503 -0.2978,-0.0263 -0.2997,-0.0039 -0.2967,0.0174 z" />
      <path
         id="path42"
         style="fill:none"
         d="m 176.7925,87.8578 -0.327,0.346 -0.2324,0.355 -0.1535,0.3471 -0.0903,0.322 -0.0429,0.28 -0.0112,0.221 0.005,0.1451 0.005,0.0521 0,0 -0.007,0.0645 -0.009,0.1522 0.006,0.1781 0,0 0.0323,0.2811 0.0364,0.2786 0.0478,0.2677 0.0663,0.2483 0.0921,0.2205 0.1251,0.184 0.1652,0.1392 0.2126,0.0859 0.2672,0.0239 0.329,-0.0463 0,0 0.0218,0.001 0.0511,-0.0037 0.0771,-0.0155 0.0998,-0.0343 0.1191,-0.0601 0.1352,-0.093 0.148,-0.1329 0.1573,-0.1797 0.1636,-0.2336 0.1664,-0.2945 0.1659,-0.3625 0.1621,-0.4373 0.155,-0.5193 0.1446,-0.6083 0,0 0.071,-0.3832 0.042,-0.3361 0.0152,-0.2912 -0.01,-0.2491 -0.0327,-0.2093 -0.0536,-0.172 -0.0725,-0.1374 -0.0893,-0.1052 -0.1042,-0.0755 -0.1171,-0.0482 -0.1279,-0.0236 -0.1368,-0.0014 -0.1436,0.0183 -0.1484,0.0354 -0.1513,0.0501 -0.152,0.0623 -0.1509,0.0719 -0.1476,0.079 -0.1425,0.0838 -0.1352,0.0857 -0.126,0.0855 -0.1148,0.0826 -0.1015,0.0771 -0.0863,0.0693 -0.069,0.0589 z" />
      <path
         id="path44"
         style="fill:#000000;fill-rule:evenodd"
         d="m 135.3332,100.7865 c -0.8317,-0.0165 -1.0353,-0.0513 -1.0353,-0.0513 l 0,0 -1.0184,1.1372 0,0 c 0,0 0.492,-0.0438 1.222,-0.0509 0.7299,-0.007 1.1322,0.0374 1.1322,0.0374 l 0,0 1.0722,-1.1228 0,0 c 0,0 -0.5411,0.0669 -1.3727,0.0504 l 0,0 0,0 z" />
      <path
         id="path46"
         style="fill:#000000;fill-rule:evenodd"
         d="m 181.7161,89.5898 c -0.0188,0.7087 -0.2219,2.7192 -0.2219,2.7192 0,0 0.5469,-0.0832 1.1434,-0.0832 0.5828,0 1.4247,0.0832 1.4247,0.0832 0,0 -0.1578,-1.6104 -0.1942,-2.2197 -0.1111,-1.8592 -0.0484,-2.9723 -0.0278,-4.4397 0.0138,-0.9851 0.3053,-3.0107 0.3053,-3.0107 0,0 -0.8837,0.0416 -1.508,0.0416 -0.6244,0 -1.2128,-0.0554 -1.2128,-0.0554 0,0 0.2446,2.1674 0.2636,2.5805 0.0694,1.5123 0.0694,2.8165 0.0277,4.3842 l 0,0 0,0 z" />
      <path
         id="path48"
         style="fill:#000000;fill-rule:evenodd"
         d="m 163.3873,98.6661 c -0.5407,0.1174 -0.8329,0.4116 -1.6849,0.4484 -0.3906,0.0169 -0.7637,0.1017 -1.0183,0.2036 -0.3185,0.1275 -0.2183,0.0245 -0.1765,-0.248 0.0324,-0.2073 0.1084,-0.431 0.1084,-0.431 0,0 -0.4243,0.0675 -0.9178,0.0675 -0.5759,0 -0.9323,-0.0505 -0.9323,-0.0505 0,0 0.126,0.6043 0.1345,0.6783 0.1712,1.5114 0.2606,2.4098 0.12,4.0235 -0.1019,1.1712 -0.2716,1.8161 -0.2716,1.8161 0,0 0.4925,-0.0935 0.9337,-0.0848 0.4243,0.008 0.8997,0.0848 0.8997,0.0848 0,0 -0.0817,-0.5836 -0.1683,-0.9878 -0.1342,-0.6265 -0.1927,-1.6137 -0.1615,-2.268 0.0696,-1.4578 1.1254,-2.2584 1.9015,-2.4985 0.9093,-0.2814 2.0248,0.2139 2.1977,1.1323 0.2546,1.355 -0.1708,2.6154 -0.8248,3.759 -0.2694,0.4713 -0.4824,0.8291 -0.4824,0.8291 0,0 0.3894,-0.0511 0.9664,-0.0591 0.5772,-0.008 0.8826,0.0762 0.8826,0.0762 0.2996,-1.2052 0.7129,-3.6494 0.5247,-4.8792 -0.1601,-1.0438 -0.9383,-1.8494 -2.0308,-1.6119 l 0,0 0,0 z" />
      <path
         id="path50"
         style="fill:#000000;fill-rule:evenodd"
         d="m 155.3373,100.5515 c 0.1161,-0.5388 0.5917,-1.8785 0.5917,-1.8785 -0.8997,0.0339 -0.8981,0.4124 -1.3436,0.5358 -0.4563,0.126 -1.1674,-0.3888 -1.6779,-0.4163 -1.521,-0.0834 -2.7899,0.7669 -3.6135,2.0725 -0.6792,1.0781 -0.8335,2.8069 0.0924,3.6956 1.0122,0.9713 2.6663,0.5556 3.6467,0.1842 0.2019,-0.0765 0.3877,-0.1938 0.566,-0.3156 0.0252,0.3238 -0.0639,0.7109 -0.0639,0.7109 0,0 0.2208,-0.0514 0.8657,-0.0514 0.645,0 0.9849,0.0514 0.9849,0.0514 0,0 -0.4017,-2.1767 -0.2509,-3.2808 0.0594,-0.4339 0.1097,-0.8796 0.2024,-1.3078 l 0,0 0,0 z m -1.3097,0.4919 c -0.1584,1.2283 -0.7914,2.9709 -1.9605,3.5778 -1.1102,0.5761 -1.9424,-0.6078 -2.0141,-1.5975 -0.0948,-1.3178 0.8293,-2.9382 1.9296,-3.6401 0.9721,-0.621 1.8316,0.0591 2.0145,1.1233 0.0319,0.1854 0.0493,0.3455 0.0305,0.5365 l 0,0 0,0 z" />
      <path
         id="path52"
         style="fill:#000000;fill-rule:evenodd"
         d="m 174.3154,100.5515 c 0.1161,-0.5388 0.5917,-1.8785 0.5917,-1.8785 -0.8997,0.0339 -0.8981,0.4124 -1.3436,0.5358 -0.4562,0.126 -1.1674,-0.3888 -1.6779,-0.4163 -1.521,-0.0834 -2.7898,0.7669 -3.6136,2.0725 -0.6791,1.0781 -0.8334,2.8069 0.0925,3.6956 1.0122,0.9713 2.6664,0.5556 3.6468,0.1842 0.2018,-0.0765 0.3877,-0.1938 0.5659,-0.3156 0.0252,0.3238 -0.0639,0.7109 -0.0639,0.7109 0,0 0.2208,-0.0514 0.8657,-0.0514 0.6449,0 0.9849,0.0514 0.9849,0.0514 0,0 -0.4017,-2.1767 -0.2508,-3.2808 0.0592,-0.4339 0.1097,-0.8796 0.2023,-1.3078 l 0,0 0,0 z m -1.3097,0.4919 c -0.1583,1.2283 -0.7914,2.9709 -1.9605,3.5778 -1.1102,0.5761 -1.9424,-0.6078 -2.0141,-1.5975 -0.0948,-1.3178 0.8294,-2.9382 1.9296,-3.6401 0.9721,-0.621 1.8316,0.0591 2.0145,1.1233 0.0319,0.1854 0.0493,0.3455 0.0305,0.5365 l 0,0 0,0 z" />
      <path
         id="path54"
         style="fill:#000000;fill-rule:evenodd"
         d="m 144.0695,99.5896 c 0.3223,-0.1527 0.5053,-0.2628 0.6949,-0.4139 0.2287,-0.1824 0.436,-0.3953 0.6185,-0.6239 0.3106,-0.3886 0.6124,-0.8743 0.6266,-1.385 -0.004,-0.7285 -0.5549,-1.2715 -1.2067,-1.5146 -1.3495,-0.5032 -2.6958,-0.6093 -3.9189,0.2611 -0.3284,0.2339 -0.8045,0.8276 -0.8045,0.8276 l 0,0 1.0026,0.5742 0,0 c 0,0 0.4625,-0.58 0.9845,-0.9335 0.5221,-0.3537 1.9925,-1.2463 2.5122,0.008 0.4204,1.0166 -0.1647,2.17 -1.0068,2.7677 -0.1552,0.1101 -0.9867,0.5285 -0.9867,0.5285 0,0 1.5521,0.0056 2.2236,0.8224 0.6588,0.8013 0.2364,2.2971 -0.174,3.0842 -0.5833,1.118 -1.8746,1.6267 -2.848,0.7052 -0.2099,-0.1979 -0.3803,-0.4322 -0.5272,-0.6791 -0.0916,-0.1554 -0.3679,-0.8631 -0.3679,-0.8631 l 0,0 -1.2468,0.573 0,0 c 0,0 0.1363,0.5657 0.6055,1.0818 0.4692,0.516 1.1263,0.6843 1.6685,0.7106 1.7941,0.0871 2.5846,-0.0352 3.1246,-0.3057 2.3872,-1.196 1.6614,-4.9484 -0.974,-5.2255 l 0,0 0,0 z" />
      <path
         id="path56"
         style="fill:#000000;fill-rule:evenodd"
         d="m 78.6248,102.949 c -0.743,-1.3908 -0.9845,-3.4612 -0.1265,-4.9848 0.697,-1.2377 2.3109,-2.6153 3.8449,-2.0636 0.6876,0.2471 1.2419,0.7291 1.734,1.2483 0.3128,0.3294 0.1419,0.4381 0.7019,0.3222 0.449,-0.0933 0.8748,-0.2729 1.3323,-0.3301 -0.0942,-1.0308 -2.0225,-1.7989 -2.8942,-1.8827 -0.5193,-0.0502 -0.9935,0.2077 -1.5112,0.2294 -0.5638,0.0235 -1.1138,0.0064 -1.6681,0.1428 -3.5335,0.8724 -5.1691,6.396 -2.4015,8.7351 1.5075,1.2741 3.2063,0.771 4.8761,0.7907 0.7654,0.009 2.2729,-0.0541 2.2729,-0.0541 l 0,0 1.5376,-2.9252 0,0 c -0.1686,0.1424 -2.2411,2.0773 -4.0082,2.4851 -0.8566,0.1977 -2.405,0.6919 -3.69,-1.7131 l 0,0 0,0 z" />
      <path
         id="path58"
         style="fill:#000000;fill-rule:evenodd"
         d="m 118.8896,98.7062 c -0.6833,-0.106 -1.2412,0.0348 -1.8871,0.2214 -0.8673,0.1358 -1.2924,0.2377 -1.7686,0.4583 0.0408,-0.2508 0.1135,-0.7374 0.1135,-0.7374 0,0 -0.3473,0.0584 -0.805,0.0632 -0.4104,0.0043 -0.7259,-0.0632 -0.7259,-0.0632 0,0 0.0661,0.5256 0.0947,0.8047 0.1262,1.2309 0.1694,2.4199 0.1578,3.6135 -0.0106,1.1525 -0.006,2.3104 -0.142,3.4558 -0.0618,0.5186 -0.2682,2.0987 -0.2682,2.0987 0,0 0.3626,-0.079 0.8679,-0.079 0.5206,0 0.9312,0.079 0.9312,0.079 -0.1926,-1.1107 -0.1105,-0.6942 -0.2212,-1.6253 -0.0351,-0.2958 -0.0731,-0.9774 -0.082,-1.2747 -0.006,-0.1701 -0.1022,-0.5867 -0.007,-0.7179 0.1669,-0.2292 0.6431,0.1672 1.3536,0.1306 2.857,-0.1475 3.7885,-2.3689 3.9202,-3.9121 0.0905,-1.0589 -0.4996,-2.3555 -1.532,-2.5156 l 0,0 0,0 z m 0.1236,2.5834 c -0.0707,0.9614 -0.6096,2.0214 -1.3032,2.697 -0.3154,0.3066 -0.787,0.6183 -1.2241,0.7037 -0.5057,0.0987 -0.8238,-0.0884 -1.0597,-0.5505 -0.4671,-0.9168 -0.3947,-1.2202 -0.3461,-2.2227 0.0157,-0.3218 0.2047,-0.7814 0.2517,-0.8941 0.0521,-0.125 0.518,-1.0476 0.7694,-1.2636 0.4332,-0.372 0.6462,-0.5941 1.5163,-0.644 1.0935,-0.0629 1.4621,1.2714 1.3957,2.1742 l 0,0 0,0 z" />
      <path
         id="path60"
         style="fill:#000000;fill-rule:evenodd"
         d="m 102.4469,99.7802 c -0.4603,-0.4768 -0.9924,-0.4699 -1.6169,-0.4818 0.9924,-0.7942 2.4551,-2.2593 1.2835,-3.5393 -0.408,-0.4456 -1.4225,-0.4751 -1.9526,-0.2879 -0.6582,0.2329 -1.3332,0.814 -1.6329,1.4482 -1.2317,2.6053 -0.0784,5.6755 -1.3846,8.227 0.3324,-0.0608 0.6563,-0.1002 0.9949,-0.0636 0.4083,0.0446 0.8495,0.0719 1.2608,0.0719 0.6257,0 1.5673,-0.0451 2.1303,-0.3407 1.1128,-0.5835 1.6926,-2.4085 1.5846,-3.5755 -0.0452,-0.5244 -0.3024,-1.0804 -0.6671,-1.4583 l 0,0 0,0 z m -1.6127,4.2607 c -0.3719,0.4859 -1.034,1.1607 -1.4757,0.3501 -0.3566,-0.655 -0.4917,-1.7224 -0.4484,-2.4487 0.08,-1.34 0.01,-2.7809 0.3029,-4.094 0.1415,-0.6341 0.3849,-1.3774 0.8854,-1.8281 0.2999,-0.2702 0.8666,-0.4697 1.16,-0.0789 0.3368,0.4476 0.0439,1.3459 -0.1455,1.8021 -0.3514,0.8469 -1.0045,1.5353 -1.7743,2.0208 0.1414,0.1553 0.4822,0.0096 0.6911,0.0245 0.267,0.0187 0.5382,0.0952 0.7679,0.2347 0.6025,0.3655 0.8173,1.1091 0.8045,1.7778 -0.0898,0.8604 -0.2339,1.5409 -0.7679,2.2397 l 0,0 0,0 z" />
      <path
         id="path62"
         style="fill:#000000;fill-rule:evenodd"
         d="m 126.43,98.5456 c -1.7081,-0.052 -3.7506,1.1858 -4.1525,2.8851 -0.3085,1.302 0.1939,2.548 1.3254,3.287 1.1915,0.7782 2.8374,0.3413 3.9295,-0.4044 0.9174,-0.6256 1.5898,-1.6004 1.5426,-2.7455 -0.0533,-1.492 -1.0761,-2.9747 -2.645,-3.0222 l 0,0 0,0 z m -0.1083,6.0412 c -0.9032,0.1584 -1.7333,-0.3659 -2.2939,-1.1528 -0.1051,-0.1461 -0.1998,-0.3019 -0.2843,-0.4647 -4e-4,-0.002 -0.001,-0.002 -0.002,-0.004 -0.0103,-0.0198 -0.0206,-0.0399 -0.0305,-0.0598 -0.3693,-0.7399 -0.5376,-1.6504 -0.3501,-2.3855 0.2464,-0.9676 0.8481,-1.359 1.5362,-1.3645 1.1169,-0.1205 2.2715,0.8997 2.8002,1.997 0.005,0.0114 0.009,0.023 0.0145,0.0345 0.0213,0.0468 0.0415,0.0946 0.0604,0.1423 0.5211,1.455 -0.0551,3.0129 -1.4507,3.2573 l 0,0 0,0 z" />
      <path
         id="path64"
         style="fill:#000000;fill-rule:evenodd"
         d="m 91.8523,104.9763 c -1.1897,0.0847 -1.8126,-1.0756 -2.0426,-2.1119 -0.0493,-0.2228 -0.0284,-0.3877 -0.0231,-0.6162 0.9397,-0.0136 1.7271,0.011 2.6521,0.011 0.52,0 1.6961,0.0795 2.0752,-0.4731 0.6811,-0.9925 0.5063,-2.1896 -0.6037,-2.7932 -2.3772,-1.2925 -5.7879,0.9034 -5.5043,3.8294 0.104,1.0736 0.9539,2.2562 1.9764,2.3166 1.8199,0.1076 3.7027,0.007 3.7027,0.007 0,0 0.332,-0.6535 0.466,-0.9034 0.0358,-0.0673 0.4254,-0.8267 0.4254,-0.8267 0,0 -1.1541,0.7925 -1.2847,0.8754 -0.5684,0.3599 -1.1649,0.6367 -1.8394,0.685 l 0,0 0,0 z m -1.6343,-4.5687 c 0.264,-0.5319 0.7696,-0.9778 1.2222,-1.1983 0.4527,-0.2205 1.1142,-0.6151 1.7263,-0.1069 0.0759,0.063 0.1579,0.1071 0.2191,0.1719 0.2792,0.2901 0.3699,0.7759 0.3807,1.1499 0.0054,0.1898 -0.0363,0.4696 -0.1223,0.7225 -0.0739,0.2461 -0.1963,0.4649 -0.387,0.5674 -0.3817,0.205 -1.1672,0.1874 -1.5638,0.1986 -0.1833,0.005 -1.5685,0.0117 -1.8979,0.004 0.0151,-0.2349 0.106,-0.8711 0.4227,-1.5092 l 0,0 0,0 z" />
      <path
         id="path66"
         style="fill:#000000;fill-rule:evenodd"
         d="m 108.6433,104.9763 c -1.1897,0.0847 -1.8126,-1.0756 -2.0426,-2.1119 -0.0492,-0.2228 -0.0284,-0.3877 -0.023,-0.6162 0.9397,-0.0136 1.7271,0.011 2.6521,0.011 0.52,0 1.696,0.0795 2.0751,-0.4731 0.6811,-0.9925 0.5063,-2.1896 -0.6037,-2.7932 -2.3771,-1.2925 -5.7878,0.9034 -5.5043,3.8294 0.1041,1.0736 0.9539,2.2562 1.9764,2.3166 1.8199,0.1076 3.7027,0.007 3.7027,0.007 0,0 0.332,-0.6535 0.466,-0.9034 0.0359,-0.0673 0.4254,-0.8267 0.4254,-0.8267 0,0 -1.1541,0.7925 -1.2847,0.8754 -0.5683,0.3599 -1.1649,0.6367 -1.8394,0.685 l 0,0 0,0 z m -1.6343,-4.5687 c 0.264,-0.5319 0.7697,-0.9778 1.2222,-1.1983 0.4527,-0.2205 1.1143,-0.6151 1.7264,-0.1069 0.0758,0.063 0.1578,0.1071 0.219,0.1719 0.2792,0.2901 0.3699,0.7759 0.3807,1.1499 0.005,0.1898 -0.0363,0.4696 -0.1222,0.7225 -0.0739,0.2461 -0.1964,0.4649 -0.3871,0.5674 -0.3816,0.205 -1.1672,0.1874 -1.5637,0.1986 -0.1833,0.005 -1.5686,0.0117 -1.898,0.004 0.0152,-0.2349 0.106,-0.8711 0.4227,-1.5092 l 0,0 0,0 z" />
      <path
         id="path68"
         style="fill:#000000;fill-rule:evenodd"
         d="m 184.3961,101.1185 c 0.002,-1.4466 -0.5019,-2.568 -1.305,-3.5377 -0.5824,-0.7028 -1.0654,-1.0793 -1.3599,-1.389 -0.1726,-0.1812 -0.6313,-0.4721 -0.6313,-0.4721 l 0,0 -3.3597,0 0,0 c 0,0 1.0801,0.4638 1.3865,0.621 1.3192,0.6778 2.6194,1.5297 3.4523,2.7735 -1.1627,-0.446 -2.4096,-0.8914 -3.6018,-0.2416 -0.7401,0.404 -1.3163,1.5163 -1.1991,3.0665 0.1299,1.7205 1.1007,3.2046 1.1007,3.2046 l 0,0 3.2736,-0.004 0,0 c 0,0 0.6237,-0.42 1.0525,-0.9555 0.6213,-0.7772 1.2549,-1.9913 1.1912,-3.0661 l 0,0 0,0 z m -1.2686,-0.0243 c -0.0743,0.9227 -0.1825,1.4476 -0.6117,2.1426 -0.2833,0.4578 -0.7367,1.0802 -1.281,1.4395 -0.4194,0.2771 -0.7057,0.1038 -1.3562,-0.8105 -0.254,-0.3572 -0.8348,-1.7253 -0.8817,-2.3197 -0.0481,-0.611 -0.1056,-2.256 1.4153,-2.3984 1.1743,-0.1101 2.5357,0.256 2.6994,1.489 0.0202,0.1511 0.0227,0.3053 0.0159,0.4575 l 0,0 0,0 z" />
      <path
         id="path70"
         style="fill:#000000;fill-rule:evenodd"
         d="m 180.8871,88.4746 c -0.0607,-1.1468 -1.0591,-1.7233 -2.1209,-1.8782 -1.2086,-0.1759 -1.9717,0.1683 -2.8419,0.9418 -0.0274,-0.7429 0.0193,-1.1588 0.0555,-1.9026 0.0554,-1.1377 0.319,-3.0245 0.319,-3.0245 0,0 -0.9864,0.0317 -1.6663,0.0455 -0.5965,0.0122 -1.0683,-0.0316 -1.0683,-0.0316 0,0 0.3779,3.3664 0.333,5.1056 -0.0311,1.2018 -0.0556,2.1783 -0.1942,3.5657 -0.0313,0.3121 -0.0971,1.0127 -0.0971,1.0127 0,0 0.8675,-0.137 1.5399,-0.0554 0.9881,0.1194 2.4462,0.1944 3.4233,-0.116 1.5156,-0.4815 2.3908,-2.1308 2.318,-3.663 l 0,0 0,0 z m -3.5768,3.5292 c -1.2076,0.2812 -1.2653,-0.7515 -1.374,-1.6829 -0.0199,-0.1704 0.009,-0.3948 0.009,-0.3948 0,0 -0.1649,-1.1726 0.8473,-2.0683 0.4976,-0.4403 3.0023,-2.2252 2.2848,1.1723 -0.6455,3.0571 -1.7388,2.9789 -1.767,2.9737 l 0,0 0,0 z" />
      <path
         id="path72"
         style="fill:#000000;fill-rule:evenodd"
         d="m 168.956,88.3276 c 0.007,0.6572 -0.0371,1.3088 -0.0706,1.9677 -0.0217,0.4311 -0.1992,2.0077 -0.1992,2.0077 0,0 1.0628,-0.0665 1.6656,-0.0682 0.514,-0.0014 1.0636,0.0682 1.0636,0.0682 -0.3192,-2.6428 -0.337,-4.0224 -0.2963,-5.4502 0.0221,-0.7778 0.0637,-1.5707 0.1367,-2.3452 0.0531,-0.5651 0.1949,-1.8782 0.1949,-1.8782 0,0 -0.6204,0.0498 -1.1168,0.0498 -0.4905,0 -1.7187,-0.0665 -1.7187,-0.0665 l 0,0 -2.5388,5.708 -0.0519,-0.0501 0,0 c -0.9234,-1.6206 -2.9473,-5.6315 -2.9473,-5.6315 0,0 -1.1448,0.0568 -1.8361,0.0568 -0.6663,0 -0.6357,-0.0281 -1.0633,-0.0665 0,0 0.6657,1.0725 0.6926,1.3298 0.0707,0.6815 0.1238,1.3795 0.1593,2.1109 0.0453,0.9333 0.0277,1.8596 0.005,2.7936 -0.0162,0.688 -0.0225,1.4805 -0.1468,2.2427 -0.0866,0.5318 -0.8074,1.1967 -0.8074,1.1967 0,0 0.5227,-0.0666 1.1429,-0.0666 0.5322,0 1.1677,0.0666 1.1677,0.0666 0,0 -0.1836,-1.28 -0.1949,-1.496 -0.0886,-1.6454 -0.2283,-3.2577 -0.0334,-4.8035 0.5674,1.1468 3.3173,6.3161 3.3173,6.3161 0,0 2.7707,-6.5679 3.3685,-7.6074 0.0708,0.9308 0.097,2.6499 0.1074,3.6153 l 0,0 0,0 z" />
      <path
         id="path74"
         style="fill:#000000;fill-rule:evenodd"
         d="m 142.9204,83.5887 c 0.9557,0.0191 1.0356,0.1448 1.1412,2.6044 0.0645,1.5015 0.021,2.3602 -0.1619,3.9175 -0.0447,0.3797 -0.2098,2.2034 -0.2098,2.2034 0,0 0.7003,-0.0933 1.33,-0.0933 0.6296,0 1.3299,0.07 1.3299,0.07 0,0 -0.2402,-1.0431 -0.2615,-1.3551 -0.1164,-1.7021 -0.1068,-3.019 0,-4.7425 0.0702,-1.1306 0.2149,-2.5528 0.2149,-2.5528 l 0,0 3.1069,0 0.3663,-1.1175 0,0 c 0,0 -4.5824,0.1969 -5.6331,0.1988 -1.8812,0.0034 -3.16,0.059 -3.16,0.059 l 0,0 -0.4056,1.0144 0,0 c 0,0 1.1767,-0.2297 2.3427,-0.2063 l 0,0 0,0 z" />
      <path
         id="path76"
         style="fill:#000000;fill-rule:evenodd"
         d="m 123.5599,92.1068 c 1.4977,-0.4992 1.4093,-1.1587 2.7,-1.436 0.0259,0.3168 -0.1743,1.6367 -0.1743,1.6367 0,0 0.9369,-0.047 1.6127,-0.0516 0.7039,-0.0047 1.1402,0.0516 1.1402,0.0516 0,0 -0.3014,-2.3338 -0.3014,-3.4948 0,-1.4017 -0.009,-2.7809 0.1464,-4.1764 0.0639,-0.5759 0.2253,-2.0129 0.2253,-2.0129 0,0 -0.5208,0.0798 -1.1964,0.0798 -0.6194,0 -1.5428,-0.0939 -1.5428,-0.0939 0,0 0.08,0.6209 0.1127,0.9291 0.1266,1.1964 0.3314,3.52 0.0847,5.2057 -0.041,0.2798 -0.7119,1.664 -1.2559,2.0432 -0.4785,0.3335 -1.1053,0.425 -1.275,0.4222 -0.6034,-0.01 -1.5678,0.315 -1.5678,-3.0195 0,-0.9607 0.0236,-1.9084 0.0809,-2.8679 0.0503,-0.8406 0.2756,-2.7127 0.2756,-2.7127 0,0 -0.8672,0.0751 -1.5429,0.0751 -0.6756,0 -1.1542,-0.047 -1.1542,-0.047 0,0 0.1126,0.9009 0.1688,1.5343 0.0563,0.6333 0.1076,2.539 0.1499,3.7229 0.0614,1.7243 -0.1659,2.9533 0.4608,3.7479 0.6435,0.816 1.9667,0.7596 2.8527,0.4642 l 0,0 0,0 z" />
      <path
         id="path78"
         style="fill:#000000;fill-rule:evenodd"
         d="m 115.0516,92.3467 c 0.7695,0.0089 2.2849,-0.0544 2.2849,-0.0544 l 0,0 1.3731,-3.0384 0,0 c -1.2302,0.8916 -3.0481,2.3893 -3.8568,2.5959 -0.002,5e-4 -1.7342,0.9152 -3.1436,-1.7229 -0.7471,-1.3986 -0.99,-3.4805 -0.1273,-5.013 0.701,-1.2449 1.7568,-2.6303 3.2993,-2.0755 0.9516,0.3422 1.2131,1.6338 1.2611,1.7519 0.1388,0.3421 0.1782,0.5527 0.1782,0.5527 0,0 1.8894,-0.5243 2.3495,-0.5819 -0.0465,-0.0523 -0.3969,-2.127 -2.9098,-2.3686 -0.5222,-0.0505 -0.999,0.209 -1.5197,0.2307 -0.5671,0.0237 -1.1201,0.0064 -1.6775,0.1437 -3.5535,0.8773 -5.1983,6.4323 -2.4151,8.7846 1.5161,1.2814 3.2244,0.7754 4.9037,0.7952 l 0,0 0,0 z" />
      <path
         id="path80"
         style="fill:#000000;fill-rule:evenodd"
         d="m 136.356,91.8043 c -0.002,6e-4 -1.7342,0.9152 -3.1437,-1.7229 -0.7469,-1.3985 -0.9898,-3.4805 -0.127,-5.0129 0.7008,-1.245 1.7566,-2.6304 3.2991,-2.0755 0.9519,0.3421 1.2137,1.6338 1.2616,1.7518 0.139,0.3421 0.1784,0.5528 0.1784,0.5528 0,0 1.8895,-0.5243 2.3496,-0.5819 -0.0465,-0.0523 -0.3969,-2.127 -2.9105,-2.3686 -0.5223,-0.0505 -0.9991,0.2089 -1.5198,0.2307 -0.5669,0.0237 -1.1201,0.0063 -1.6775,0.1437 -3.5535,0.8772 -5.1982,6.4322 -2.4149,8.7846 1.516,1.2813 3.2242,0.7753 4.9035,0.7952 0.7697,0.0089 2.2857,-0.0544 2.2857,-0.0544 l 0,0 1.3731,-3.0384 0,0 c -1.2302,0.8915 -3.049,2.3893 -3.8576,2.5958 l 0,0 0,0 z" />
      <path
         id="path82"
         style="fill:#000000;fill-rule:evenodd"
         d="m 98.9334,91.7643 c 1.8662,1.3327 4.5465,0.739 6.3552,-0.3886 1.519,-0.9466 2.6666,-2.4714 2.6674,-4.3183 0.0135,-2.4064 -1.7959,-4.7806 -4.319,-4.9621 -2.7474,-0.1978 -5.8574,1.5771 -6.6188,4.287 -0.5831,2.076 0.1425,4.116 1.9152,5.382 l 0,0 0,0 z m 0.6746,-7.8605 c 0.8865,-0.6893 1.7693,-0.7997 3.0214,-0.5373 1.7622,0.4812 3.3633,2.5293 3.4484,4.6624 -4e-4,0.0201 -10e-4,0.0403 -0.001,0.0605 0.001,0.0834 4e-4,0.1665 -0.003,0.2494 0.009,-0.1088 0.0998,3.9066 -4.1314,2.9575 -1.6413,-0.3678 -2.7287,-1.8866 -3.0913,-3.415 -0.0692,-0.2843 -0.1142,-0.5763 -0.1354,-0.8715 0,-0.0021 0,-0.0044 -2e-4,-0.0065 -0.0027,-0.0361 -0.0052,-0.0723 -0.0069,-0.1084 -0.0705,-1.2566 0.2123,-2.4566 0.8996,-2.9911 l 0,0 0,0 z" />
      <path
         id="path84"
         style="fill:#000000;fill-rule:evenodd"
         d="m 91.4576,92.0375 c -1.5347,-0.0161 -2.4825,-1.7573 -2.7783,-3.0905 -0.0747,-0.3379 -0.0812,-0.4422 -0.0731,-0.7889 1.4248,-0.0205 2.3381,0.017 3.7407,0.017 0.7888,0 2.5723,-0.1375 3.1471,-0.9753 1.0328,-1.5052 0.7678,-3.3209 -0.9156,-4.2362 -3.6049,-1.96 -8.7773,1.3702 -8.3473,5.8074 0.1577,1.6283 1.4466,3.4217 2.9973,3.5133 2.7599,0.163 5.6152,0.0107 5.6152,0.0107 l 0,0 1.3793,-3.0767 0,0 c 0,0 -1.734,1.3729 -2.3368,1.7804 -0.8453,0.5714 -1.4031,1.0495 -2.4285,1.0388 l 0,0 0,0 z m -2.8838,-5.391 c 0.0763,-0.6201 0.2556,-1.2025 0.6865,-1.7437 0.6007,-0.7546 1.3639,-1.3366 2.0592,-1.6398 0.7453,-0.3248 1.3344,-0.4605 1.8528,-0.0765 0.7032,0.5209 0.7139,1.3843 0.7297,1.9394 0.0082,0.2878 -0.081,0.782 -0.2113,1.1653 -0.1342,0.2655 -0.2693,0.4199 -0.5007,0.4972 -0.2824,0.0941 -0.7033,0.3175 -1.9736,0.2937 -0.8628,-0.0161 -2.1422,-0.0087 -2.6497,-0.0087 l 0,0 0.0071,-0.4269 0,0 z" />
      <path
         id="path86"
         style="fill:#000000;fill-rule:evenodd"
         d="m 156.7979,90.9987 c -0.8453,0.5714 -1.403,1.0495 -2.4284,1.0388 -1.5348,-0.0161 -2.4824,-1.7573 -2.7783,-3.0905 -0.0748,-0.3379 -0.0811,-0.4422 -0.0732,-0.7889 1.425,-0.0205 2.3381,0.017 3.7408,0.017 0.7887,0 2.5723,-0.1375 3.147,-0.9753 1.0329,-1.5052 0.768,-3.3209 -0.9156,-4.2362 -3.6048,-1.96 -8.7771,1.3702 -8.3472,5.8074 0.1577,1.6283 1.4466,3.4217 2.9972,3.5133 2.7601,0.163 5.6152,0.0107 5.6152,0.0107 l 0,0 1.3794,-3.0767 0,0 c 0,0 -1.734,1.3729 -2.3369,1.7804 l 0,0 0,0 z m -5.3123,-4.3522 c 0.0763,-0.6201 0.2556,-1.2025 0.6866,-1.7437 0.6007,-0.7546 1.3639,-1.3366 2.0592,-1.6398 0.7452,-0.3248 1.3344,-0.4605 1.8529,-0.0765 0.703,0.5209 0.7138,1.3843 0.7296,1.9394 0.008,0.2878 -0.0809,0.782 -0.2112,1.1653 -0.1343,0.2655 -0.2693,0.4199 -0.5008,0.4972 -0.2825,0.0941 -0.7032,0.3175 -1.9735,0.2937 -0.8629,-0.0161 -2.1422,-0.0087 -2.6498,-0.0087 l 0,0 0.007,-0.4269 0,0 z" />
      <path
         id="path88"
         style="fill:#000000;fill-rule:evenodd"
         d="m 77.2139,92.2487 c 0.5436,0.0143 1.5314,0.0428 1.5314,0.0428 0,0 -0.0163,-0.3693 -0.0428,-0.4726 C 78.637,91.5658 78.5989,91 78.5906,90.7535 78.518,90.0901 78.3625,88.2 78.6167,88.2 c 1.1157,0 4.1918,-0.2025 4.2187,0.0571 0.1145,1.1015 -0.243,4.0202 -0.243,4.0202 0,0 1.0305,-0.0286 1.5884,-0.0286 0.558,0 0.9873,0.0428 0.9873,0.0428 0,0 -0.0966,-0.9509 -0.1289,-1.2737 -0.1174,-1.1743 -0.1194,-1.7463 -0.1239,-2.1777 -0.0185,-1.7546 0.0362,-2.9276 0.0666,-3.6593 0.021,-0.5011 0.0716,-1.03 0.1288,-1.5307 0.0249,-0.2182 0.1289,-1.0295 0.1289,-1.0295 0,0 -0.5581,0.0573 -1.0731,0.0573 -0.5151,0 -1.6456,-0.0716 -1.6456,-0.0716 0,0 0.1468,1.23 0.1859,1.5307 0.029,0.2231 0.0305,0.4044 0.0402,0.6293 0.0369,0.8361 0.0737,1.2081 0.1105,2.0442 -0.0707,0.1989 -0.9135,0.1294 -1.6376,0.1356 -0.5148,0.0041 -0.7191,-0.0057 -1.2341,0 -0.3364,0.0034 -0.8869,0.0451 -1.433,-0.0264 -0.1465,-0.0191 -0.0343,-1.0217 9e-4,-1.2846 0.0702,-0.5215 0.0358,-1.0054 0.1058,-1.5271 0.0423,-0.3142 0.1859,-1.4874 0.1859,-1.4874 0,0 -1.0879,0.0573 -1.6459,0.0573 -0.5581,0 -1.1014,-0.0573 -1.1014,-0.0573 0,0 0.1173,0.7965 0.1431,0.9441 0.0454,0.2604 0.0855,0.6216 0.0855,0.8866 0,0.6799 0.1431,1.9597 0.1431,2.6397 0,2.0134 -0.2859,5.2005 -0.2859,5.2005 0,0 0.5007,-0.0428 1.03,-0.0428 l 0,0 0,0 z" />
      <path
         id="path90"
         style="fill:#000000;fill-rule:evenodd"
         d="m 78.6024,90.7173 c -0.0124,-0.1354 -0.016,-0.0921 -0.0118,0.0362 0.0303,0.2767 0.0463,0.3414 0.0118,-0.0362 l 0,0 0,0 z" />
    </g>
  </g>
</svg>
