<?xml version="1.0" encoding="UTF-8" standalone="no"?>
<svg
   xmlns:dc="http://purl.org/dc/elements/1.1/"
   xmlns:cc="http://creativecommons.org/ns#"
   xmlns:rdf="http://www.w3.org/1999/02/22-rdf-syntax-ns#"
   xmlns:svg="http://www.w3.org/2000/svg"
   xmlns="http://www.w3.org/2000/svg"
   viewBox="0 0 410.06876 217.7225"
   height="217.7225"
   width="410.06876"
   xml:space="preserve"
   version="1.1"
   id="svg2"><metadata
     id="metadata8"><rdf:RDF><cc:Work
         rdf:about=""><dc:format>image/svg+xml</dc:format><dc:type
           rdf:resource="http://purl.org/dc/dcmitype/StillImage" /></cc:Work></rdf:RDF></metadata><defs
     id="defs6"><clipPath
       id="clipPath16"
       clipPathUnits="userSpaceOnUse"><path
         id="path18"
         d="m 0,174.178 328.055,0 L 328.055,0 0,0 0,174.178 Z" /></clipPath></defs><g
     transform="matrix(1.25,0,0,-1.25,0,217.7225)"
     id="g10"><g
       id="g12"><g
         clip-path="url(#clipPath16)"
         id="g14"><g
           transform="translate(84.9895,85.2478)"
           id="g20"><path
             id="path22"
             style="fill:#00d300;fill-opacity:1;fill-rule:nonzero;stroke:none"
             d="M 0,0 C 0,-2.023 0.602,-3.719 1.75,-5.031 2.953,-6.344 4.43,-7 6.234,-7 c 1.805,0 3.282,0.656 4.43,1.969 1.203,1.312 1.805,3.008 1.805,5.031 0,2.023 -0.602,3.719 -1.805,5.031 C 9.516,6.344 8.039,7 6.234,7 4.43,7 2.953,6.344 1.75,5.031 0.602,3.719 0,2.023 0,0 M 16.516,-10.117 C 13.945,-12.688 10.773,-14 7,-14 c -2.844,0 -5.141,0.766 -6.891,2.297 l 0,-12.305 -7.765,0 0,37.406 7.656,0 c 0,0 4.102,0.658 7,0.658 3.773,0 6.945,-1.314 9.516,-3.884 2.57,-2.57 3.882,-5.961 3.882,-10.172 0,-4.156 -1.312,-7.547 -3.882,-10.117" /></g><g
           transform="translate(140.6604,80.5447)"
           id="g24"><path
             id="path26"
             style="fill:#00d300;fill-opacity:1;fill-rule:nonzero;stroke:none"
             d="m 0,0 c 1.258,1.367 1.914,3.008 1.914,4.867 0,3.719 -2.68,6.672 -6.836,6.672 -1.915,0 -3.5,-0.656 -4.759,-1.969 -1.257,-1.312 -1.858,-2.898 -1.858,-4.703 0,-1.804 0.655,-3.445 1.913,-4.812 1.259,-1.367 2.845,-2.078 4.704,-2.078 2.024,0 3.663,0.656 4.922,2.023 m 1.914,18.102 7.82,0 0,-26.797 -7.82,0 0,1.968 c -2.078,-1.695 -4.54,-2.57 -7.438,-2.57 -3.883,0 -7.219,1.313 -9.954,3.992 -2.734,2.68 -4.101,6.016 -4.101,10.008 0,3.992 1.367,7.328 4.101,10.008 2.735,2.68 6.071,4.048 9.954,4.048 3.226,0 7.438,-0.657 7.438,-0.657" /></g><g
           transform="translate(191.9719,91.4822)"
           id="g28"><path
             id="path30"
             style="fill:#00d300;fill-opacity:1;fill-rule:nonzero;stroke:none"
             d="m 0,0 0,-19.633 -7.766,0 0,26.797 16.432,0 L 8.666,0 0,0 Z" /></g><g
           transform="translate(101.8303,110.1311)"
           id="g32"><path
             id="path34"
             style="fill:#00d300;fill-opacity:1;fill-rule:nonzero;stroke:none"
             d="m 0,0 0,-7.164 7.494,0 0,-31.118 7.766,0 L 15.26,0 0,0 Z" /></g><g
           transform="translate(208.5764,111.8967)"
           id="g36"><path
             id="path38"
             style="fill:#00d300;fill-opacity:1;fill-rule:nonzero;stroke:none"
             d="m 0,0 c 2.896,0 5.115,-2.219 5.115,-5.115 0,-2.773 -2.342,-5.053 -5.115,-5.053 -2.772,0 -5.053,2.28 -5.053,5.053 C -5.053,-2.219 -2.772,0 0,0" /></g><path
           id="path40"
           style="fill:#00d300;fill-opacity:1;fill-rule:nonzero;stroke:none"
           d="m 204.697,98.646 7.82,0 0,-26.797 -7.82,0 0,26.797 z" /><g
           transform="translate(224.6457,98.6463)"
           id="g42"><path
             id="path44"
             style="fill:#00d300;fill-opacity:1;fill-rule:nonzero;stroke:none"
             d="M 0,0 4.047,-6.836 8.094,0 l 8.75,0 -8.422,-13.016 9.023,-13.781 -8.695,0 -4.703,7.602 -4.65,-7.602 -8.75,0 9.025,13.781 L -8.75,0 0,0 Z" /></g><g
           transform="translate(167.2248,61.24)"
           id="g46"><path
             id="path48"
             style="fill:#00d300;fill-opacity:1;fill-rule:nonzero;stroke:none"
             d="m 0,0 -8.203,0 4.375,10.609 -10.445,26.797 8.64,0 6.016,-16.57 6.234,16.57 8.313,0 L 0,0 Z" /></g></g></g></g></svg>